{"glyphs":{"0":{"ha":886,"x_min":20,"x_max":862,"o":"m 654 534 q 649 420 654 478 q 625 280 642 342 q 478 97 579 110 q 370 144 422 90 q 295 255 351 165 q 250 491 240 346 q 254 538 251 512 q 263 600 258 570 q 300 740 277 682 q 476 842 364 906 q 604 709 553 798 q 654 534 654 622 m 758 813 q 733 852 758 813 q 650 925 709 891 q 510 969 599 954 q 313 1004 408 987 q 161 913 231 1019 q 113 821 136 875 q 95 778 104 801 q 82 741 89 762 q 52 351 20 564 q 124 168 65 256 q 268 24 182 81 q 452 -45 357 -34 q 648 -9 556 -57 q 799 149 745 41 q 855 375 847 245 q 834 616 862 495 q 758 813 806 735 z "},"1":{"ha":683,"x_min":11,"x_max":670,"o":"m 631 153 q 576 172 606 168 q 553 175 568 174 l 542 176 l 532 177 q 496 193 510 180 q 467 246 479 209 q 450 342 454 286 q 448 391 449 360 l 448 416 l 446 440 q 432 652 441 529 l 429 686 l 425 721 q 421 791 421 764 q 397 924 413 895 q 286 983 371 971 q 226 985 260 987 q 153 971 186 981 q 71 878 65 943 q 99 831 74 842 q 154 823 116 822 l 169 823 l 184 823 q 213 821 201 823 q 255 792 244 816 q 277 699 272 755 q 279 649 278 678 l 279 625 l 279 602 q 278 489 280 555 l 276 433 l 274 376 l 274 357 l 273 336 q 271 294 273 311 q 248 218 267 245 q 194 181 229 191 q 161 174 183 178 l 142 172 q 123 168 132 170 q 78 155 94 161 q 42 135 54 146 q 45 59 11 108 q 195 3 78 14 q 287 0 233 0 l 307 0 l 326 0 q 358 0 348 1 q 427 1 391 -1 q 514 10 475 3 q 644 75 622 28 q 631 153 670 130 z "},"2":{"ha":891,"x_min":-11,"x_max":884,"o":"m 659 229 q 682 238 667 232 l 706 249 q 757 265 736 260 q 848 235 817 277 q 852 113 884 184 q 767 18 823 52 q 513 -26 680 -35 q 374 -9 450 -22 q 254 17 317 1 q 239 20 248 18 l 230 22 l 221 24 q 179 35 196 30 q 90 65 124 48 q 35 198 -11 115 q 91 229 51 228 l 107 230 l 125 230 q 158 235 145 231 q 224 280 190 247 l 239 295 l 253 310 q 281 338 271 328 q 402 470 361 415 q 485 627 464 550 q 478 781 505 701 q 366 861 446 875 q 301 810 328 854 q 281 767 292 793 l 271 744 l 262 722 q 218 650 240 667 q 136 646 186 625 q 77 772 55 683 q 186 934 96 854 q 384 1040 279 1017 q 589 1000 504 1067 q 675 789 681 928 q 600 562 669 670 q 557 499 583 536 l 534 468 l 511 437 q 433 305 458 362 q 473 184 383 191 q 563 197 509 182 q 659 229 606 208 z "},"3":{"ha":711,"x_min":7,"x_max":693,"o":"m 595 496 q 565 524 595 496 q 531 556 534 551 q 547 640 517 582 q 570 676 555 654 l 585 694 l 597 712 q 630 791 629 758 q 546 951 637 888 q 447 988 511 975 q 317 996 382 1000 q 198 964 245 989 q 132 884 144 935 q 150 804 117 818 q 237 812 174 795 l 264 821 l 290 829 q 342 841 322 838 q 415 823 398 850 q 389 707 444 777 q 337 659 366 678 q 283 640 307 640 q 235 604 254 629 q 215 551 218 581 q 226 496 212 521 q 272 458 241 470 q 294 450 279 456 l 307 446 l 319 441 q 372 422 349 431 q 470 367 435 395 q 467 179 568 288 q 368 140 420 129 q 273 192 334 147 l 248 210 l 224 227 q 175 253 197 245 q 69 241 119 275 q 15 150 24 210 q 40 47 7 92 q 239 -37 92 -21 q 465 -23 364 -50 q 597 60 541 -3 q 671 201 650 120 q 675 359 693 283 q 595 496 657 441 z "},"4":{"ha":837,"x_min":20,"x_max":836,"o":"m 772 510 q 748 523 772 510 q 714 611 724 536 q 709 703 705 642 l 711 728 l 713 753 l 713 868 q 704 961 711 922 q 620 1078 684 1078 q 527 979 533 1086 q 531 890 525 945 l 534 869 l 535 859 l 541 745 q 538 667 542 699 q 466 545 525 579 q 309 538 396 503 q 196 647 224 572 q 188 718 186 674 q 191 756 189 733 l 193 776 l 195 795 q 163 928 204 892 q 43 896 79 1002 q 24 802 30 859 q 22 759 22 781 l 20 654 q 23 562 20 602 q 60 414 31 448 q 174 370 88 380 q 331 364 208 366 q 500 352 454 361 q 574 296 570 337 q 576 279 575 290 l 577 269 l 578 259 q 584 212 581 232 q 606 109 593 151 q 724 1 643 -12 q 789 113 802 25 q 770 189 786 139 l 765 208 l 760 225 q 753 258 754 245 q 750 315 745 307 q 761 330 751 319 q 801 376 766 335 l 810 383 l 819 390 q 828 446 836 407 q 772 510 821 484 z "},"5":{"ha":843,"x_min":22,"x_max":828,"o":"m 536 574 l 558 570 q 600 559 583 564 q 667 535 643 547 q 797 384 762 490 q 809 178 828 291 q 658 23 790 66 q 540 2 606 7 q 429 2 487 -2 q 205 57 311 9 q 37 208 76 115 q 29 276 22 242 q 59 334 36 309 q 113 368 81 358 q 181 369 147 378 q 269 316 220 357 l 289 299 l 309 282 q 349 252 332 262 q 480 218 417 209 q 566 270 536 227 q 577 359 594 313 q 487 441 557 412 q 393 462 450 456 q 340 465 371 464 l 314 465 l 288 467 q 99 507 151 471 q 39 710 36 551 q 76 933 41 844 q 274 1045 115 1032 q 408 1045 326 1049 l 441 1044 l 471 1042 q 526 1040 506 1040 q 612 1031 566 1040 q 701 1000 666 1019 q 708 863 795 948 q 536 822 657 814 l 511 824 l 486 826 q 438 829 456 829 q 349 822 383 832 q 272 769 295 806 q 278 684 245 728 q 375 621 304 648 q 514 580 421 603 l 536 574 z "},"6":{"ha":854,"x_min":-8,"x_max":831,"o":"m 440 391 q 456 402 448 397 q 568 381 515 416 q 595 269 616 349 q 533 161 576 200 q 420 155 478 138 q 334 256 332 179 q 353 321 335 289 q 402 376 372 354 q 440 391 422 378 m 799 427 q 640 568 747 531 q 401 545 524 608 q 362 526 391 542 l 351 520 l 338 514 q 313 502 324 507 q 231 511 252 475 q 233 578 216 534 q 250 612 239 594 q 267 640 258 627 q 360 749 315 708 q 483 821 420 804 q 517 827 496 823 l 536 829 l 557 833 q 644 849 612 840 q 743 958 746 879 q 600 1055 739 1058 q 490 1038 550 1053 q 405 1008 439 1025 q 203 859 295 957 q 64 651 117 766 q 39 313 -8 496 q 222 26 85 132 q 376 -50 292 -29 q 537 -54 457 -70 q 684 10 618 -39 q 793 142 753 62 q 830 292 830 215 q 799 427 831 363 z "},"7":{"ha":745,"x_min":18,"x_max":723,"o":"m 661 1034 q 642 1037 643 1038 q 650 1031 641 1035 q 665 1027 660 1027 q 661 1034 670 1027 q 509 1061 622 1065 q 464 1059 490 1060 l 442 1057 l 420 1055 q 349 1052 370 1051 q 287 1060 326 1053 l 254 1066 l 220 1072 q 95 1063 138 1084 q 29 977 41 1038 q 63 875 18 914 q 162 845 102 841 q 275 871 200 847 l 303 880 l 332 888 q 385 899 363 897 q 479 876 444 906 q 506 667 541 824 q 463 519 493 608 q 436 443 454 492 l 422 404 l 409 366 q 353 106 346 182 q 503 16 363 -1 q 540 142 520 70 l 557 205 l 565 237 l 574 270 q 597 353 582 301 l 610 396 l 622 438 q 660 608 650 538 q 669 654 663 625 q 674 681 671 665 l 680 709 q 703 832 697 786 q 661 1034 723 985 z "},"8":{"ha":774,"x_min":20,"x_max":750,"o":"m 565 248 q 542 224 565 248 q 458 189 519 201 q 373 192 397 177 q 368 195 372 193 q 317 227 337 201 q 301 254 306 238 q 312 381 277 317 q 412 453 347 446 q 529 446 472 459 q 591 415 568 453 l 593 414 l 595 412 q 565 248 611 294 m 271 744 q 321 880 248 840 l 323 882 l 326 883 q 450 873 389 921 q 488 834 478 857 q 491 827 490 831 l 493 819 q 483 698 527 751 q 388 652 439 645 q 306 692 342 657 q 271 744 279 713 m 585 575 q 688 711 671 624 q 664 876 705 788 q 551 1018 625 960 q 390 1084 474 1079 q 203 1029 291 1091 q 79 877 120 970 q 58 694 36 781 q 180 547 82 598 q 130 488 180 537 l 111 470 l 102 462 l 94 454 q 72 432 75 436 q 20 267 20 368 q 137 83 20 152 q 357 28 238 22 q 549 90 439 31 q 705 215 658 149 q 741 315 732 254 q 736 434 750 376 q 686 534 722 496 q 585 575 646 575 z "},"9":{"ha":854,"x_min":20,"x_max":859,"o":"m 411 603 q 394 591 403 597 q 283 612 336 577 q 256 724 234 645 q 317 832 274 793 q 430 839 373 855 q 516 737 518 814 q 497 672 515 705 q 449 617 479 640 q 411 603 428 616 m 52 567 q 211 426 104 463 q 449 449 326 386 q 488 467 460 452 l 500 473 l 512 479 q 537 492 526 487 q 621 483 599 518 q 617 416 634 459 q 601 381 611 399 q 584 354 593 367 q 491 244 536 286 q 368 173 431 189 q 334 167 355 170 l 315 163 l 294 161 q 207 144 238 153 q 108 36 105 115 q 250 -61 112 -64 q 361 -44 301 -60 q 446 -15 412 -31 q 647 134 555 37 q 787 342 734 227 q 812 681 859 498 q 629 968 765 862 q 475 1043 559 1023 q 313 1048 394 1063 q 167 983 233 1032 q 58 851 98 932 q 20 701 20 778 q 52 567 20 630 z "},"\u0000":{"ha":835,"x_min":0,"x_max":0,"o":""},"\u001d":{"ha":835,"x_min":0,"x_max":0,"o":""}," ":{"ha":301,"x_min":0,"x_max":0,"o":""}," ":{"ha":301,"x_min":0,"x_max":0,"o":""},"!":{"ha":350,"x_min":35,"x_max":263,"o":"m 123 176 q 208 147 182 167 q 250 81 250 109 l 250 62 q 220 -8 247 25 q 140 -47 178 -47 l 108 -47 q 41 3 60 -47 q 35 47 35 40 q 75 151 35 125 q 123 176 99 176 m 170 311 q 259 578 245 309 q 261 824 263 666 q 254 1026 259 983 q 153 1152 237 1159 q 72 1078 94 1147 q 60 1018 64 1053 q 58 961 58 994 l 51 735 q 50 715 51 728 l 50 703 l 50 690 q 48 631 49 657 q 56 493 48 551 q 170 311 51 319 q 172 311 176 311 l 163 312 q 158 313 157 313 q 170 311 159 312 z "},"\"":{"ha":412,"x_min":0,"x_max":0,"o":""},"#":{"ha":1029,"x_min":0,"x_max":0,"o":""},"$":{"ha":819,"x_min":0,"x_max":0,"o":""},"%":{"ha":970,"x_min":0,"x_max":0,"o":""},"&":{"ha":920,"x_min":0,"x_max":0,"o":""},"'":{"ha":210,"x_min":0,"x_max":0,"o":""},"(":{"ha":441,"x_min":0,"x_max":0,"o":""},")":{"ha":624,"x_min":0,"x_max":0,"o":""},"*":{"ha":532,"x_min":0,"x_max":0,"o":""},"+":{"ha":680,"x_min":0,"x_max":0,"o":""},",":{"ha":378,"x_min":0,"x_max":0,"o":""},"-":{"ha":606,"x_min":0,"x_max":0,"o":""},"­":{"ha":606,"x_min":0,"x_max":0,"o":""},".":{"ha":319,"x_min":49,"x_max":276,"o":"m 168 248 q 218 216 191 248 q 268 153 268 184 q 276 129 274 153 l 276 81 q 229 10 276 43 q 205 5 212 5 l 160 5 q 86 41 139 5 q 49 123 51 87 l 52 129 l 49 134 q 96 218 49 189 q 155 248 111 218 l 168 248 z "},"/":{"ha":710,"x_min":0,"x_max":0,"o":""},":":{"ha":334,"x_min":0,"x_max":0,"o":""},";":{"ha":375,"x_min":0,"x_max":0,"o":""},";":{"ha":375,"x_min":0,"x_max":0,"o":""},"<":{"ha":606,"x_min":0,"x_max":0,"o":""},"=":{"ha":616,"x_min":0,"x_max":0,"o":""},">":{"ha":606,"x_min":0,"x_max":0,"o":""},"?":{"ha":794,"x_min":0,"x_max":0,"o":""},"@":{"ha":1187,"x_min":0,"x_max":0,"o":""},"A":{"ha":1103,"x_min":16,"x_max":1061,"o":"m 758 540 l 758 539 q 755 534 755 536 q 758 539 755 534 l 756 536 l 755 534 q 612 484 730 491 q 517 484 570 481 q 437 491 477 486 q 330 581 338 501 q 338 656 327 612 q 363 736 345 688 l 370 757 q 409 842 387 800 q 469 930 438 897 q 631 939 553 1021 q 752 748 708 857 q 759 540 806 617 l 758 540 m 758 540 q 761 544 760 543 q 758 540 762 545 m 1038 109 l 1029 150 q 998 357 1003 275 l 994 433 q 987 509 990 476 q 954 657 976 593 q 897 795 926 731 q 814 945 857 880 q 571 1128 701 1114 q 348 1010 443 1143 q 279 887 311 960 q 231 764 257 838 q 168 547 202 680 l 140 437 q 111 327 123 372 q 64 184 88 247 q 49 150 59 171 l 40 134 l 33 117 q 22 45 16 78 q 114 -32 37 -23 q 198 -9 172 -38 q 264 98 229 25 l 279 127 l 293 155 q 326 209 310 186 q 570 354 424 341 l 595 356 l 621 358 q 673 360 650 360 q 774 347 734 361 q 836 266 825 330 q 838 203 839 241 l 836 169 l 833 134 q 842 7 827 47 q 939 -62 865 -53 q 1033 -33 1003 -71 q 1048 66 1061 4 l 1038 109 z "},"B":{"ha":930,"x_min":33,"x_max":924,"o":"m 672 250 q 634 186 663 214 q 532 132 599 151 q 416 118 473 117 q 252 253 283 121 q 245 282 248 270 q 239 315 241 300 q 236 383 234 353 q 304 480 242 461 q 418 488 350 494 q 530 464 479 482 q 640 378 597 439 q 672 250 687 313 m 239 853 q 292 929 245 904 q 395 950 332 951 q 507 928 454 949 q 587 876 563 907 q 595 754 628 820 q 494 684 562 688 q 325 722 408 678 q 239 853 229 774 m 864 479 q 724 608 816 562 q 806 730 777 659 q 763 1000 869 886 q 500 1120 668 1103 l 471 1123 l 440 1126 q 378 1131 404 1130 q 258 1128 308 1136 q 74 996 128 1109 q 34 589 35 917 q 53 114 33 311 q 68 45 58 67 q 116 2 82 15 q 572 -37 350 -86 q 772 58 692 -9 q 892 252 861 133 q 864 479 924 378 z "},"C":{"ha":1019,"x_min":-25,"x_max":1041,"o":"m 801 975 q 705 970 769 964 q 648 979 683 973 l 618 983 l 590 988 q 488 997 522 1000 q 286 904 363 987 q 201 705 214 827 q 239 450 188 578 q 351 254 292 315 q 562 174 437 182 q 676 176 607 172 l 705 179 l 736 181 q 798 185 773 184 q 879 183 838 188 q 957 165 927 178 q 959 45 1041 127 q 730 -20 886 -27 q 601 -3 671 -17 q 491 25 547 8 q 117 290 252 90 q 41 765 -25 499 q 260 1077 88 953 q 625 1192 429 1200 q 732 1169 679 1190 q 844 1036 844 1129 q 801 975 844 989 z "},"D":{"ha":952,"x_min":49,"x_max":913,"o":"m 717 391 q 625 271 691 317 q 481 207 574 235 q 456 199 473 205 l 449 196 l 441 194 l 425 188 q 350 167 381 174 q 224 182 254 146 q 201 264 208 203 q 199 314 199 285 l 198 325 l 198 335 q 197 353 197 347 q 204 538 193 420 l 208 585 l 212 631 q 216 724 216 684 q 256 867 216 834 q 400 865 298 901 q 670 696 584 800 q 720 399 775 569 l 717 391 m 875 724 q 853 775 865 749 q 416 1076 722 987 q 121 1112 231 1129 q 59 1049 60 1103 q 65 1000 59 1034 l 69 975 q 71 951 71 962 l 71 806 l 70 659 q 60 367 68 494 q 60 87 49 193 q 191 -7 71 -4 q 294 3 234 -7 q 342 12 314 6 l 353 14 l 364 16 q 384 20 376 18 q 610 93 513 43 q 842 290 781 181 q 904 504 895 387 q 875 724 913 622 z "},"E":{"ha":907,"x_min":-90,"x_max":873,"o":"m 238 360 q 391 467 241 423 q 723 522 539 509 q 802 593 800 539 l 803 606 q 703 671 792 662 q 609 661 661 675 q 564 647 591 656 l 541 639 l 519 631 q 330 617 418 597 q 263 713 266 631 q 304 834 261 790 q 381 872 332 863 q 424 877 398 875 l 446 878 l 468 879 q 650 911 584 886 q 736 966 701 932 q 766 1057 775 1006 q 707 1135 756 1107 q 627 1157 676 1152 q 584 1159 609 1158 l 563 1160 l 543 1160 q 368 1152 499 1161 q 161 1101 232 1141 q 56 910 51 1038 l 59 778 q 47 596 60 635 q -26 557 33 557 q -88 485 -85 557 q 54 440 -90 413 q 82 349 83 437 q 72 268 81 321 l 68 246 l 64 224 q 58 180 60 199 q 102 26 47 75 q 174 1 127 5 q 214 0 189 0 l 233 1 l 253 0 q 574 16 536 12 l 798 46 q 873 117 853 54 q 728 200 872 197 q 558 188 658 200 q 386 177 458 174 q 265 244 302 180 q 238 360 235 296 z "},"F":{"ha":892,"x_min":28,"x_max":837,"o":"m 720 1141 q 620 1139 659 1141 q 513 1135 562 1138 q 302 1097 390 1125 q 39 813 70 1024 q 43 623 28 734 l 51 575 l 59 528 q 73 435 68 470 q 96 134 96 233 q 111 44 96 77 q 184 0 133 0 q 254 47 237 0 q 263 93 261 66 l 264 116 l 264 138 q 262 180 264 154 l 260 203 l 258 227 q 254 328 252 290 q 346 468 260 447 q 430 473 371 474 l 455 472 l 481 471 q 534 471 512 471 q 688 544 663 475 q 661 623 708 600 q 567 637 625 641 l 517 635 l 468 633 q 370 625 409 629 l 354 623 l 338 621 q 304 617 317 617 q 245 637 267 616 q 204 718 214 667 q 211 808 195 766 q 332 916 237 878 q 415 940 368 930 q 495 953 448 947 q 627 962 551 960 l 693 962 l 760 961 q 816 989 793 961 q 837 1049 837 1015 q 801 1120 837 1097 q 720 1141 770 1141 z "},"G":{"ha":1068,"x_min":-31,"x_max":1081,"o":"m 711 643 q 990 554 905 648 q 1041 254 1081 455 q 792 -71 988 25 q 604 -113 706 -112 q 407 -75 505 -113 q 89 156 197 5 q 42 623 -31 370 q 157 863 80 753 q 342 1047 237 979 q 584 1126 457 1121 q 651 1121 614 1128 q 728 1098 696 1113 q 803 987 816 1059 q 672 915 792 924 q 623 911 657 913 l 576 911 q 499 907 517 911 q 296 786 388 885 q 172 567 208 690 q 169 330 134 437 q 329 153 208 210 q 467 124 385 126 q 626 143 552 121 q 758 216 709 168 q 814 348 814 271 q 755 458 816 428 q 694 477 731 471 q 659 483 677 481 l 623 488 q 572 492 611 490 l 557 492 l 541 493 q 507 495 524 494 q 404 533 421 503 q 418 617 370 587 q 465 635 435 629 q 515 640 490 640 l 612 640 l 711 643 z "},"H":{"ha":949,"x_min":-127,"x_max":892,"o":"m 865 271 q 855 487 855 365 q 857 595 855 533 l 859 703 q 864 763 860 717 q 870 825 869 808 q 878 1000 880 928 q 753 1223 871 1225 q 671 1116 679 1221 q 673 1008 668 1077 l 675 978 l 677 947 q 682 884 681 908 q 661 652 692 728 q 478 542 616 545 q 366 541 390 538 q 268 582 300 546 q 218 699 227 627 q 218 849 211 747 q 225 980 226 950 q 197 1109 223 1058 q 112 1152 166 1167 q 43 1078 60 1138 q 43 999 35 1046 l 47 979 l 52 960 q 69 841 57 936 q 80 695 81 746 q -9 509 77 547 q -50 503 -26 501 q -127 429 -127 488 q -119 388 -127 408 q -71 344 -104 351 q -3 349 -46 338 q 52 361 31 368 q 89 295 87 350 q 86 241 90 275 l 82 212 l 79 182 q 83 76 71 109 q 163 28 101 28 q 191 33 185 28 q 201 40 195 36 l 211 47 q 228 59 222 54 q 247 100 243 73 q 248 152 250 120 l 247 180 l 245 208 q 258 311 241 278 q 363 374 277 351 q 598 406 395 382 q 694 375 668 407 q 705 330 701 366 l 709 254 q 722 152 712 152 q 804 20 722 20 q 831 25 825 20 q 850 39 838 31 l 858 44 l 866 50 q 887 88 882 62 q 887 151 892 115 q 880 183 885 165 l 873 214 q 865 271 867 240 z "},"I":{"ha":588,"x_min":19,"x_max":557,"o":"m 507 119 q 454 160 488 140 q 373 300 391 198 q 366 388 367 338 q 366 429 366 407 l 367 449 l 368 467 l 372 560 l 376 652 q 381 837 381 763 l 381 854 l 380 871 q 382 900 380 889 q 413 951 387 930 q 452 970 425 961 l 475 977 q 498 985 489 981 q 555 1048 553 1006 q 478 1109 557 1105 l 463 1109 l 290 1101 l 161 1105 q 140 1106 149 1106 q 118 1105 128 1106 q 73 1099 92 1104 q 20 1036 22 1084 q 57 977 19 998 q 93 962 68 971 l 111 955 q 128 947 121 951 q 219 812 209 906 q 226 650 227 747 l 224 570 l 224 489 q 228 425 224 465 l 231 391 l 233 358 q 220 229 237 278 q 182 182 209 198 l 171 175 l 158 168 q 132 149 142 159 q 101 69 80 106 q 184 26 120 35 q 447 25 332 2 q 524 64 509 37 q 507 119 536 88 z "},"J":{"ha":850,"x_min":-3,"x_max":852,"o":"m 847 1049 q 701 1117 829 1116 q 598 1109 659 1117 l 575 1107 l 564 1105 l 553 1103 q 517 1099 529 1101 l 500 1098 l 481 1097 q 444 1092 460 1095 q 368 1077 400 1086 q 247 994 281 1052 q 254 895 218 945 q 339 832 284 855 l 361 823 l 385 814 q 427 793 411 803 q 484 720 472 766 q 505 382 513 595 q 469 243 503 313 q 372 142 429 159 q 284 169 323 129 q 268 187 277 176 l 252 206 q 214 243 231 231 q 101 261 168 277 q 18 187 33 244 q 81 35 -3 115 q 231 -54 154 -36 q 413 -36 319 -75 q 564 73 498 -1 q 655 271 630 149 q 671 490 672 356 l 669 533 l 668 576 q 667 662 666 629 q 707 827 671 760 q 741 871 718 848 q 764 892 750 880 l 786 913 q 848 1002 842 964 q 847 1049 852 1029 z "},"K":{"ha":922,"x_min":25,"x_max":929,"o":"m 871 212 q 704 354 823 271 l 659 386 q 614 417 632 405 q 538 480 566 453 q 482 617 467 551 q 643 790 500 697 q 675 813 659 801 q 716 844 696 829 q 799 924 767 886 q 808 1097 888 1034 q 670 1097 754 1140 q 604 1053 640 1081 q 574 1029 590 1043 l 562 1018 l 555 1013 l 550 1008 q 510 969 545 1003 q 481 942 494 954 q 450 913 465 926 q 344 849 370 842 q 307 932 309 860 q 306 962 306 943 l 306 977 l 305 990 q 298 1035 304 1021 q 276 1070 290 1056 q 83 929 150 1207 q 46 705 60 837 q 38 611 41 659 q 35 576 37 593 q 34 551 35 564 l 33 537 l 33 522 q 31 489 31 502 q 28 413 28 447 q 33 242 25 315 q 157 -7 54 33 q 284 92 243 -40 q 323 393 317 195 q 354 363 344 374 q 396 316 367 350 q 409 300 401 310 l 423 283 q 454 247 441 262 q 598 94 536 149 q 884 66 794 -81 q 871 212 929 141 z "},"L":{"ha":806,"x_min":12,"x_max":800,"o":"m 703 152 q 623 142 650 144 q 541 137 577 137 q 385 171 451 138 q 218 434 244 242 q 214 603 207 508 q 232 763 218 669 l 243 825 l 254 888 q 274 1014 267 968 q 248 1096 283 1072 q 157 1103 214 1118 q 110 1016 123 1084 q 102 959 106 995 l 100 946 l 98 933 q 96 910 97 919 q 32 196 12 447 q 62 52 39 102 q 165 -44 94 -20 q 380 -65 259 -75 q 592 -25 465 -58 q 604 -22 597 -24 l 611 -20 l 618 -19 q 650 -11 637 -14 q 719 13 691 1 q 787 106 800 50 q 722 151 778 144 q 675 150 701 153 q 635 142 654 147 l 699 152 l 703 152 z "},"M":{"ha":1702,"x_min":17,"x_max":1696,"o":"m 1620 262 q 1559 464 1593 345 l 1529 566 l 1500 667 l 1487 717 l 1472 766 q 1441 866 1455 825 q 1348 1050 1402 979 q 1318 1082 1335 1067 q 1280 1113 1299 1101 q 1193 1122 1230 1143 q 1082 995 1132 1086 q 1045 915 1065 962 q 1029 876 1039 901 l 1021 857 l 1013 838 q 998 802 1009 829 q 989 778 993 787 q 979 753 984 764 q 926 642 952 686 q 770 532 850 508 q 687 639 713 550 q 671 714 679 667 l 667 732 l 665 749 q 659 780 661 768 q 637 857 649 824 q 604 933 623 901 q 481 1028 557 1015 q 319 928 387 1044 q 235 783 264 836 q 155 633 189 701 q 30 320 68 463 q 22 233 17 273 q 60 157 26 179 q 163 180 117 119 q 196 236 180 202 q 208 264 201 250 q 216 288 212 275 l 233 338 l 250 389 q 288 486 269 446 q 411 654 338 593 q 535 581 488 720 q 552 522 543 555 q 565 464 557 498 q 585 378 581 390 q 665 255 614 290 q 795 266 725 213 q 907 385 853 310 q 993 526 944 437 q 1013 565 998 536 l 1019 577 l 1025 590 q 1040 618 1033 605 q 1109 732 1078 690 q 1276 745 1207 859 q 1333 595 1309 691 l 1342 555 l 1351 515 q 1369 438 1362 466 l 1465 95 l 1469 82 l 1472 68 q 1481 39 1477 52 q 1504 -21 1492 3 q 1595 -88 1539 -88 q 1680 47 1696 -88 q 1655 155 1674 92 q 1640 201 1649 175 l 1636 212 l 1633 221 q 1628 237 1630 231 l 1620 262 z "},"N":{"ha":1072,"x_min":17,"x_max":1029,"o":"m 854 1075 q 726 964 731 1093 q 737 853 725 920 q 748 802 741 833 l 751 789 l 753 779 q 757 759 755 766 q 793 321 807 502 q 707 412 752 356 q 669 464 690 434 l 631 517 q 464 715 532 660 q 439 735 453 724 l 429 745 l 418 755 q 375 791 391 780 q 266 833 326 827 q 106 791 161 840 q 39 642 54 744 q 37 620 38 632 q 33 588 35 605 q 26 501 28 545 q 22 283 17 378 q 165 39 37 -2 q 239 138 220 56 q 252 315 254 199 l 251 363 l 250 412 q 248 503 248 469 q 271 635 250 600 q 429 498 326 629 q 474 438 448 473 l 497 406 l 521 374 q 617 247 582 290 q 807 79 732 104 q 967 193 905 47 q 1009 387 991 250 q 1027 680 1029 538 q 987 949 1024 849 q 854 1075 943 1069 z "},"O":{"ha":987,"x_min":22,"x_max":975,"o":"m 777 429 q 732 293 772 355 q 630 199 693 235 q 494 160 566 163 q 348 191 418 157 q 223 388 239 243 q 256 633 211 502 l 264 657 l 273 682 q 291 731 282 711 q 345 817 314 787 q 437 886 401 872 q 549 899 469 899 q 737 719 677 899 q 770 564 760 651 q 777 429 779 494 m 659 1051 q 589 1069 630 1063 q 553 1073 574 1071 l 517 1076 q 251 1053 355 1088 q 148 985 182 1029 q 119 914 123 976 q 118 867 117 895 l 118 857 l 119 848 q 119 834 119 838 q 87 707 113 789 l 77 675 l 67 642 q 50 576 56 604 q 41 323 22 435 q 161 108 66 184 q 592 9 335 -32 q 747 64 672 22 q 822 128 781 83 l 839 147 l 856 166 q 888 201 876 189 q 962 357 944 256 q 967 530 975 429 q 857 881 953 715 q 751 996 819 945 q 699 1031 726 1015 q 659 1051 677 1043 z "},"P":{"ha":822,"x_min":34,"x_max":797,"o":"m 623 706 q 515 599 610 631 q 354 592 431 570 q 256 652 276 602 q 252 766 244 683 q 283 854 256 808 q 351 909 315 909 q 525 866 444 909 q 625 729 623 814 q 623 706 625 717 m 671 1051 q 536 1123 617 1105 q 376 1124 460 1140 q 222 1066 293 1107 q 109 965 150 1023 q 34 634 34 858 q 43 447 34 553 q 52 360 47 410 l 55 339 l 57 319 q 61 282 60 295 l 62 275 l 63 266 q 65 246 64 256 q 73 197 68 220 q 98 85 83 132 q 220 -31 142 -54 q 304 54 289 -9 q 294 190 316 105 q 273 264 286 221 l 260 301 l 254 319 l 248 336 q 221 455 221 420 q 460 412 359 409 q 677 505 594 417 q 789 775 797 602 q 671 1051 781 939 q 656 1067 653 1069 q 671 1051 659 1064 q 686 1036 684 1039 q 671 1051 689 1033 z "},"Q":{"ha":1047,"x_min":-3,"x_max":1020,"o":"m 846 382 q 833 350 840 366 q 778 264 812 308 q 704 195 739 214 q 653 195 673 178 q 626 248 639 209 l 621 265 l 615 283 q 604 317 608 304 q 567 364 588 353 q 499 364 519 389 q 481 294 484 347 l 481 272 l 480 250 q 478 210 479 224 q 451 169 473 169 q 284 248 376 169 q 189 406 189 330 q 201 556 178 470 q 273 713 224 641 q 388 828 324 791 q 530 848 458 869 q 774 668 669 808 q 844 528 825 600 q 846 382 866 451 m 848 1002 q 679 1063 781 1050 q 503 1055 585 1076 q 194 867 311 1006 q 40 566 78 730 q 84 239 -3 376 q 298 53 166 109 q 363 33 325 42 l 395 26 l 428 19 q 545 -37 505 1 q 597 -112 562 -54 l 612 -136 l 627 -161 q 661 -210 646 -189 q 829 -273 747 -324 q 863 -197 871 -247 q 848 -154 860 -178 q 827 -113 841 -138 q 821 -103 825 -111 q 810 -85 817 -96 q 781 -37 795 -59 q 734 32 739 32 q 857 104 786 32 q 911 165 884 130 q 950 218 930 190 q 996 327 983 266 q 1005 384 1002 351 l 1008 413 l 1010 444 q 989 720 1020 570 q 880 972 952 895 q 848 1002 866 988 z "},"R":{"ha":827,"x_min":21,"x_max":798,"o":"m 223 608 q 224 769 167 652 q 337 916 273 869 q 458 932 392 956 q 539 841 524 907 q 508 741 538 798 q 431 642 477 685 q 330 584 380 596 q 225 606 272 571 l 223 608 m 531 433 q 574 521 528 483 q 594 537 582 528 l 616 552 q 657 585 643 572 q 760 742 726 650 q 770 927 798 845 q 595 1082 733 1035 q 353 1098 473 1122 q 140 977 228 1073 q 43 753 49 879 q 27 452 27 471 l 27 313 l 31 81 q 110 -24 21 -14 l 113 -24 q 187 -3 161 -30 q 212 161 202 -6 q 252 363 222 328 q 343 375 281 399 q 571 22 550 25 q 652 -34 619 -31 q 755 80 776 -17 q 706 182 760 116 q 662 231 690 201 l 652 242 l 643 252 q 628 269 633 262 q 609 292 621 277 l 600 302 l 591 313 q 561 352 572 336 q 531 433 532 394 z "},"S":{"ha":871,"x_min":-5,"x_max":834,"o":"m 513 1209 q 649 1202 608 1209 q 775 1150 717 1190 q 823 1082 810 1126 q 826 998 834 1043 q 812 954 822 975 q 780 916 798 924 q 716 945 754 905 l 703 960 l 689 975 q 665 996 674 991 q 604 1015 640 1010 q 538 1018 580 1018 q 383 1011 429 1018 q 237 963 305 1000 q 105 842 123 901 q 205 721 84 774 q 633 463 415 631 q 739 325 705 408 q 757 151 776 237 q 553 -23 757 9 q 228 -45 315 -54 q 113 -32 140 -36 q 18 55 25 -20 q 37 121 15 87 q 91 161 60 159 q 155 146 114 162 l 172 139 l 187 133 q 216 125 204 127 q 307 112 264 116 q 408 109 361 106 q 585 164 524 114 q 614 254 625 198 q 556 334 604 308 q 437 392 520 353 l 404 408 l 370 424 q 301 458 331 442 q 74 623 136 543 q 1 779 5 711 q 58 943 -5 852 q 255 1128 137 1055 q 513 1209 385 1209 z "},"T":{"ha":1040,"x_min":17,"x_max":1000,"o":"m 715 1092 q 196 1073 277 1058 q 102 1087 115 1088 q 43 1059 64 1086 q 21 1007 25 1036 q 30 951 17 977 q 144 896 56 899 q 182 896 161 895 l 200 897 l 218 897 q 282 897 262 899 q 406 822 376 886 q 414 601 424 783 q 418 224 404 418 q 437 14 433 29 q 496 -38 450 -28 q 577 -12 546 -50 q 605 72 605 21 q 615 231 605 132 q 593 766 625 330 q 621 865 591 841 q 756 909 682 911 q 852 907 831 907 q 944 925 907 909 q 996 1000 993 945 q 954 1083 1000 1056 q 879 1099 928 1099 q 838 1099 863 1100 l 818 1098 q 800 1097 807 1097 q 715 1092 766 1097 z "},"U":{"ha":1035,"x_min":21,"x_max":1014,"o":"m 26 789 q 138 1060 21 1085 q 241 895 254 1035 q 314 300 241 408 q 421 164 387 193 q 558 124 474 121 q 710 205 659 128 q 779 406 762 281 q 790 690 798 546 q 866 1066 746 1048 q 1000 712 987 1084 q 872 130 1014 341 q 534 -55 770 -48 q 197 92 330 -60 q 47 436 81 224 l 26 789 z "},"V":{"ha":947,"x_min":16,"x_max":923,"o":"m 801 1059 q 902 970 877 1056 q 903 821 923 898 q 783 507 860 659 q 753 444 772 488 l 745 425 l 736 404 q 717 359 724 377 q 622 170 665 241 q 350 8 486 -58 q 269 79 307 28 q 214 172 241 117 q 170 286 193 217 l 153 343 q 134 401 142 379 q 121 445 127 420 l 108 489 q 82 576 92 547 q 58 656 68 617 q 36 749 44 705 q 39 925 16 863 q 123 983 61 983 q 213 930 183 983 q 281 755 254 858 q 302 665 291 718 l 311 618 l 320 572 l 321 566 l 323 557 q 328 537 326 545 q 338 488 333 511 q 370 371 353 421 q 475 226 418 224 q 608 360 574 229 q 636 644 630 439 l 637 683 l 639 721 q 643 795 640 764 q 662 928 649 876 q 791 1059 696 1057 l 801 1059 z "},"W":{"ha":1491,"x_min":18,"x_max":1502,"o":"m 1331 946 q 1185 795 1215 977 q 1177 720 1180 762 q 1173 647 1175 692 q 1163 536 1168 558 l 1157 510 l 1149 482 q 1131 427 1141 450 q 1062 336 1104 365 q 912 357 989 288 q 853 425 883 382 q 810 494 833 454 l 804 505 l 798 517 q 784 542 790 531 q 753 594 767 572 q 678 687 713 656 q 496 644 580 773 q 456 553 486 628 q 431 492 440 515 q 402 433 416 458 q 260 393 327 293 q 210 626 194 490 q 219 684 213 650 l 224 713 l 229 743 q 243 865 242 816 q 206 951 243 913 q 113 970 164 991 q 23 758 37 941 q 22 612 18 692 q 32 505 25 553 q 77 348 39 447 q 173 151 120 233 q 299 28 237 51 q 437 92 374 2 q 500 237 474 145 l 511 273 l 521 311 q 547 385 533 354 q 616 429 569 435 q 699 380 656 422 q 768 286 732 347 l 783 258 l 798 231 q 827 178 817 196 q 999 30 902 50 q 1204 81 1101 9 q 1345 245 1293 143 q 1407 395 1377 306 q 1460 600 1444 503 q 1378 926 1502 861 q 1331 946 1353 940 z "},"X":{"ha":1103,"x_min":5,"x_max":1109,"o":"m 1042 194 q 1097 143 1081 182 q 1101 73 1109 111 q 1066 14 1092 35 q 994 1 1034 -12 q 606 220 820 59 l 588 235 l 570 249 q 540 269 552 263 q 484 266 512 283 q 361 152 435 236 l 332 118 q 301 85 314 98 q 235 24 266 47 q 158 -14 201 -3 q 76 -16 112 -26 q 18 37 32 -3 q 31 142 5 79 q 125 239 50 191 q 191 277 149 254 l 226 296 l 260 316 q 365 400 336 361 q 382 507 401 448 q 290 629 360 578 q 224 671 263 649 l 189 689 l 171 698 l 154 707 q 88 762 119 726 q 46 839 57 800 q 56 920 33 886 q 146 962 81 956 q 267 908 206 968 q 289 884 275 899 l 311 861 q 353 823 335 835 q 474 792 411 784 q 592 849 535 800 q 888 1075 776 1009 q 962 1080 925 1096 q 1009 1031 992 1065 q 1020 962 1026 997 q 977 902 1013 922 q 937 879 962 893 l 915 867 l 892 854 q 796 798 835 822 q 644 665 684 726 q 734 362 547 517 q 905 254 804 304 q 1042 194 981 214 z "},"Y":{"ha":948,"x_min":12,"x_max":911,"o":"m 805 1125 q 887 1093 861 1135 q 900 998 911 1054 q 793 831 887 930 l 755 792 q 718 753 732 768 q 659 673 678 708 q 632 517 637 633 q 629 409 630 478 l 629 352 l 628 294 q 608 90 625 158 q 532 -15 585 -3 q 387 144 386 -49 q 402 300 387 204 q 408 336 404 315 l 411 353 l 414 368 q 420 417 419 402 q 334 644 431 549 q 238 722 302 674 l 212 742 l 186 762 q 134 803 156 784 q 70 882 102 831 q 25 985 36 937 q 36 1069 12 1040 q 142 1093 64 1102 q 309 991 234 1082 q 338 951 321 976 l 353 931 l 368 911 q 434 834 405 861 q 547 807 493 779 q 636 907 588 829 q 656 941 645 922 l 676 976 q 714 1042 701 1021 q 793 1122 758 1113 q 805 1125 799 1124 z "},"Z":{"ha":876,"x_min":-7,"x_max":871,"o":"m 710 191 q 450 181 505 151 q 402 317 385 216 q 425 399 408 353 q 439 436 431 416 q 446 452 443 444 l 450 460 l 453 467 q 538 630 481 536 l 562 670 l 586 709 q 633 789 615 757 q 666 949 684 880 q 583 1049 650 1010 q 437 1096 525 1084 q 279 1097 357 1107 q 193 1075 241 1092 q 99 1029 139 1056 q 30 873 -7 959 q 90 823 47 834 q 170 822 122 814 q 205 830 182 824 l 216 833 l 228 836 q 252 843 243 840 q 357 863 317 860 q 453 758 484 872 q 389 614 435 692 q 346 547 372 587 l 323 513 l 301 479 q 191 189 190 311 q 312 23 191 68 q 423 -1 358 5 q 524 -6 470 -6 q 604 -7 578 -7 q 741 8 685 -5 q 801 37 773 16 q 841 85 829 58 q 791 186 871 149 q 737 195 768 197 q 710 191 726 194 z "},"[":{"ha":486,"x_min":0,"x_max":0,"o":""},"\\":{"ha":659,"x_min":0,"x_max":0,"o":""},"]":{"ha":578,"x_min":0,"x_max":0,"o":""},"^":{"ha":669,"x_min":0,"x_max":0,"o":""},"_":{"ha":865,"x_min":0,"x_max":0,"o":""},"`":{"ha":374,"x_min":-17,"x_max":355,"o":"m 208 1204 l 250 1164 q 329 1081 299 1117 q 348 1027 355 1050 q 300 1017 340 1003 q 212 1061 260 1029 q 170 1090 193 1073 l 150 1104 l 131 1118 q 109 1134 124 1124 l 96 1143 l 83 1152 q 33 1195 51 1175 q 29 1303 -17 1251 q 97 1305 55 1332 q 130 1278 112 1295 q 144 1264 136 1273 l 151 1258 l 157 1253 l 165 1244 l 208 1204 z "},"a":{"ha":861,"x_min":18,"x_max":850,"o":"m 541 385 q 517 380 520 380 q 525 382 515 380 q 541 385 535 384 q 541 385 548 387 q 400 409 433 363 q 394 557 370 450 q 399 581 395 562 q 401 596 400 590 l 405 614 q 426 690 414 659 q 513 770 459 783 q 558 715 542 762 q 568 676 563 700 l 570 667 l 572 658 q 576 642 574 648 q 587 605 580 629 l 593 586 l 600 567 q 614 491 612 521 q 541 385 621 408 m 768 456 q 747 578 758 522 q 710 715 730 654 q 571 930 655 878 q 332 852 441 1011 q 256 710 293 796 q 229 642 243 680 q 218 612 224 629 l 214 598 l 209 586 q 165 469 192 539 l 119 350 q 37 112 66 208 q 37 12 18 47 q 121 -3 58 -28 q 214 93 180 22 l 227 123 l 240 153 q 277 209 257 187 q 399 243 302 237 q 475 243 432 244 q 508 243 490 243 l 515 243 l 522 243 q 533 242 529 242 q 648 218 616 240 q 682 110 690 188 q 679 84 682 101 l 677 69 l 675 55 q 672 -5 670 18 q 743 -75 677 -73 q 825 157 850 -71 q 794 333 817 227 q 785 372 791 349 l 781 389 l 778 406 q 768 456 770 441 z "},"b":{"ha":823,"x_min":26,"x_max":817,"o":"m 632 345 q 589 275 623 312 q 524 224 557 242 q 414 205 477 199 q 309 241 355 211 q 244 340 250 279 q 246 398 242 362 l 248 414 l 250 430 q 253 464 252 450 q 296 498 256 494 q 334 499 310 500 l 352 498 q 369 498 363 498 l 399 498 q 431 498 417 498 q 497 493 469 497 q 610 441 574 481 q 632 345 646 398 m 277 827 q 347 850 294 848 q 390 848 368 851 q 423 843 409 846 q 492 806 466 833 q 502 736 524 772 q 357 646 467 678 q 269 716 275 622 q 269 728 269 720 l 268 734 l 267 742 q 266 774 266 760 q 277 827 266 813 m 808 355 q 741 519 800 454 q 591 622 694 572 q 644 783 643 703 q 566 924 646 879 q 333 982 459 986 q 185 946 230 979 q 106 815 140 913 q 33 431 52 656 q 30 390 31 406 q 28 346 28 366 q 30 254 26 294 q 90 90 39 147 q 361 -5 180 -10 q 652 62 507 -1 q 779 182 736 98 q 808 355 817 260 z "},"c":{"ha":873,"x_min":-11,"x_max":886,"o":"m 743 858 q 798 825 779 838 q 844 783 828 804 q 821 659 886 725 q 697 666 769 625 q 599 728 614 721 q 398 769 492 775 q 247 669 283 762 q 217 397 189 520 q 383 201 249 261 l 410 189 l 435 176 q 488 157 466 162 q 601 152 527 147 l 614 153 l 629 154 q 659 154 646 155 q 717 129 696 151 q 732 45 756 90 q 671 -10 716 15 q 473 -38 600 -50 q 222 63 345 -25 q 50 271 94 154 q 30 591 -11 433 q 182 840 68 740 q 441 950 296 941 q 743 858 599 961 z "},"d":{"ha":884,"x_min":-18,"x_max":873,"o":"m 325 208 q 207 326 222 201 q 206 431 201 368 l 208 457 l 210 481 q 214 522 213 511 l 215 548 l 217 574 q 222 624 220 602 q 247 711 230 677 q 406 791 288 795 q 588 738 512 788 q 676 578 677 679 q 578 321 676 425 q 325 208 480 218 m 722 828 q 435 958 607 925 q 385 967 410 963 q 317 976 350 972 q 165 978 229 985 q 20 816 -18 958 q 50 546 48 709 q 49 407 51 495 l 47 338 q 46 272 46 300 q 45 231 46 255 l 43 210 l 41 189 q 41 110 37 138 q 150 27 52 27 q 648 123 453 27 q 812 281 752 176 q 871 502 870 382 q 722 828 873 700 z "},"e":{"ha":750,"x_min":26,"x_max":706,"o":"m 192 469 q 216 587 186 515 q 273 696 239 647 q 369 760 300 734 q 467 745 446 791 q 439 614 490 693 q 344 513 397 550 q 271 484 316 494 q 231 476 256 480 l 212 472 l 192 469 m 627 265 q 562 253 597 265 q 530 241 549 249 l 500 228 q 367 212 424 197 q 270 269 313 227 q 214 364 224 312 q 446 437 342 363 q 586 636 555 513 q 583 795 607 722 q 505 902 561 863 q 378 940 450 941 q 231 891 303 939 q 99 745 149 838 q 39 553 52 660 q 46 350 26 451 q 117 169 67 248 q 473 30 237 -18 q 650 97 576 52 q 699 189 706 132 q 627 265 692 248 q 625 264 622 265 q 631 262 627 263 q 637 262 637 262 q 627 265 637 262 z "},"f":{"ha":777,"x_min":26,"x_max":742,"o":"m 644 1082 q 408 1065 514 1087 q 191 975 274 1039 q 54 798 87 894 q 38 578 26 715 l 77 125 l 79 104 l 81 83 q 92 45 85 60 q 155 0 109 7 q 233 87 228 -2 q 229 163 235 119 q 224 197 228 178 l 223 205 l 222 212 q 219 224 220 220 q 342 407 197 359 q 476 435 391 422 l 510 439 l 543 444 q 602 454 580 450 q 685 498 647 464 q 716 581 730 539 q 650 623 703 622 q 604 617 629 623 q 583 612 594 615 q 564 606 574 610 q 313 565 413 562 q 216 595 243 567 q 184 705 189 625 q 334 883 184 825 q 465 916 390 904 q 583 927 520 924 q 607 927 591 928 l 633 927 q 682 932 665 927 q 730 969 718 943 q 732 1019 742 992 q 701 1063 724 1046 q 644 1082 675 1082 z "},"g":{"ha":1016,"x_min":28,"x_max":996,"o":"m 677 918 q 741 899 677 918 q 565 777 805 879 q 220 385 254 641 q 267 218 208 293 q 418 131 326 143 q 807 382 596 109 q 589 445 687 431 l 561 448 q 515 455 524 452 q 447 534 444 467 q 722 597 471 629 q 910 564 841 585 q 980 410 996 539 q 832 184 967 315 q 624 24 726 83 q 368 -43 484 -57 q 126 142 229 -26 q 45 436 28 296 q 271 808 70 645 q 677 918 549 958 z "},"h":{"ha":725,"x_min":-30,"x_max":732,"o":"m 640 559 q 646 553 642 555 q 666 545 652 547 l 678 543 l 691 541 q 723 494 732 528 q 709 467 720 482 q 690 446 702 456 l 679 434 l 667 423 q 646 404 653 412 q 627 355 627 382 q 627 327 626 342 l 628 300 l 628 250 q 576 153 623 192 q 464 123 500 93 q 429 239 435 148 q 418 326 423 309 q 371 389 407 371 q 288 397 329 410 q 243 336 247 382 q 248 300 242 319 l 254 281 l 260 262 q 271 180 278 213 q 227 107 262 135 q 146 96 188 76 q 97 162 112 112 q 77 311 92 179 q 60 370 73 349 q 43 387 54 378 l 33 395 l 23 402 q -12 446 -5 422 q -7 526 -30 502 q 58 549 9 545 q 63 595 60 559 l 65 611 l 66 629 q 70 666 68 650 l 96 829 q 280 987 146 1034 q 300 833 331 968 l 274 734 q 256 671 257 680 q 258 562 241 597 q 348 524 278 519 q 393 530 370 525 q 434 547 419 537 q 465 615 458 562 q 494 920 492 873 q 524 1029 497 998 q 637 1052 557 1068 q 664 996 665 1023 l 663 985 l 661 972 q 659 947 659 958 q 647 786 662 891 q 631 650 631 682 q 630 640 631 646 l 630 627 q 629 602 629 612 q 640 559 630 571 z "},"i":{"ha":300,"x_min":26,"x_max":275,"o":"m 200 939 q 187 939 188 939 q 193 939 186 939 l 201 939 q 200 939 205 939 q 71 768 107 939 q 52 630 58 709 q 49 571 50 604 l 48 558 l 47 547 q 47 526 47 534 l 42 452 l 38 376 q 29 227 33 283 q 27 170 26 193 q 34 108 28 134 q 109 28 51 38 q 219 146 192 14 q 232 254 228 188 q 233 279 233 264 l 234 290 l 235 301 q 237 337 236 326 q 240 357 238 342 l 241 363 l 241 371 q 243 386 243 379 q 252 465 248 427 q 267 666 264 578 q 200 939 275 935 z "},"j":{"ha":684,"x_min":19,"x_max":656,"o":"m 559 920 q 476 839 500 930 q 455 623 458 772 l 454 561 l 453 498 q 450 381 452 424 q 416 218 443 256 q 329 163 382 171 q 228 193 274 153 q 201 232 212 207 q 193 254 197 241 l 186 277 q 126 347 167 334 q 37 338 59 368 q 35 254 19 312 q 79 151 47 205 q 135 79 110 99 q 301 3 212 17 q 462 23 385 -9 q 586 123 538 55 q 642 290 637 195 q 644 313 643 296 l 644 319 l 645 327 l 646 344 q 650 426 649 388 q 652 633 656 543 q 559 920 643 906 z "},"k":{"ha":862,"x_min":6,"x_max":816,"o":"m 786 181 q 740 231 770 204 q 713 253 730 240 l 701 264 l 688 274 q 605 357 624 327 q 584 471 576 403 q 655 608 592 543 q 683 635 666 619 l 711 662 q 768 722 747 696 q 804 819 800 764 q 765 907 808 882 q 649 888 714 938 q 600 841 625 870 q 563 793 580 819 q 553 779 558 787 l 549 774 l 546 768 q 528 743 537 755 q 489 690 507 713 q 352 591 386 559 q 324 686 319 624 q 336 765 333 731 q 311 904 345 863 q 249 942 287 933 q 83 814 143 966 q 47 687 62 760 q 38 628 42 658 q 33 580 35 604 q 107 94 6 307 q 173 -1 138 29 q 278 -16 223 -44 q 325 51 317 5 q 321 145 330 83 l 317 170 l 313 195 q 309 243 309 224 q 328 321 307 295 q 401 337 359 361 q 435 310 417 328 q 449 294 441 303 q 461 279 454 288 q 511 202 479 256 l 524 181 l 536 160 q 564 118 551 136 q 711 13 631 21 q 775 28 753 9 q 806 92 796 47 q 786 181 816 138 z "},"l":{"ha":728,"x_min":3,"x_max":682,"o":"m 570 249 q 439 252 526 249 l 374 254 l 310 255 q 186 358 190 255 q 201 454 185 397 q 216 503 207 475 l 224 527 l 233 550 q 322 896 312 772 q 307 971 326 941 q 241 1006 286 1006 q 139 924 178 1006 q 114 852 125 894 q 106 818 109 836 q 99 787 103 805 q 95 765 98 781 l 93 758 l 92 749 q 88 731 90 739 q 70 637 78 682 q 35 393 45 501 q 108 50 3 64 q 471 58 252 29 q 484 60 476 58 q 503 62 492 61 q 550 70 528 66 q 612 89 612 81 q 667 133 652 105 q 673 186 682 158 q 637 230 664 213 q 570 249 608 249 z "},"m":{"ha":977,"x_min":16,"x_max":934,"o":"m 845 701 q 769 707 808 732 q 734 676 754 696 l 718 656 l 701 635 q 629 570 656 583 q 543 592 587 550 q 513 649 522 613 q 507 682 510 662 l 505 699 l 503 715 q 487 781 498 757 q 436 833 471 814 q 245 793 347 882 q 90 564 156 716 q 20 288 25 416 q 90 109 16 148 q 244 130 182 60 q 302 284 294 186 q 299 356 302 295 q 296 408 297 386 q 296 460 296 437 q 361 589 301 597 q 403 551 389 587 q 420 473 412 528 l 422 450 l 426 428 q 435 385 430 403 q 473 325 448 341 q 543 307 511 300 q 597 335 568 310 l 610 346 l 623 357 q 649 380 639 372 q 710 410 680 406 q 733 317 731 377 q 732 261 734 294 l 731 233 l 730 204 q 732 98 726 134 q 774 22 741 45 q 910 61 882 -52 q 922 162 920 98 l 923 187 l 923 199 l 923 211 q 923 249 923 238 l 925 273 l 926 299 q 930 351 929 332 q 932 460 934 414 q 878 661 926 587 q 845 701 861 686 z "},"n":{"ha":743,"x_min":14,"x_max":798,"o":"m 558 1116 q 481 1142 528 1145 q 419 1095 432 1139 q 446 967 405 1046 q 465 935 454 954 l 483 903 q 513 845 505 865 q 541 773 530 804 q 559 692 555 729 q 522 545 572 597 q 439 556 503 524 l 414 570 q 388 583 397 578 q 341 600 359 597 q 233 583 271 610 q 166 496 206 564 q 33 201 69 330 q 23 109 14 157 q 61 34 32 64 q 127 7 91 4 q 202 57 168 11 q 265 225 247 116 l 272 269 q 280 313 276 295 q 307 399 290 362 q 362 336 336 377 q 384 298 371 321 l 394 280 l 405 262 q 453 200 430 220 q 524 170 484 173 q 645 224 597 163 q 701 351 682 270 q 558 1116 798 768 z "},"o":{"ha":807,"x_min":45,"x_max":794,"o":"m 434 900 q 680 753 567 900 q 793 414 793 606 q 601 140 794 254 q 254 40 431 42 q 85 166 142 40 q 45 385 45 259 q 136 724 45 576 q 434 900 245 899 m 243 391 q 241 382 242 385 q 224 355 240 380 q 208 311 208 331 q 243 243 208 279 l 294 218 q 363 206 316 208 l 420 211 q 545 304 463 214 q 629 510 627 395 q 578 670 629 597 q 429 753 519 753 l 406 752 q 285 642 327 752 q 243 391 248 538 z "},"p":{"ha":788,"x_min":-70,"x_max":864,"o":"m 435 945 q 336 900 376 930 l 322 886 l 303 869 l 276 837 q 156 420 156 635 q -45 374 14 475 q 153 221 -70 227 q 322 -16 151 -82 q 367 58 359 15 l 363 78 q 349 214 347 161 q 759 478 665 204 q 440 949 864 966 l 435 945 m 522 828 q 637 592 692 802 q 339 395 582 368 q 471 805 347 639 q 522 828 500 823 z "},"q":{"ha":914,"x_min":18,"x_max":848,"o":"m 711 500 q 687 382 711 449 q 625 281 661 309 q 576 283 598 260 q 557 311 567 292 l 547 327 l 538 344 q 496 395 515 386 q 430 371 468 409 q 420 346 422 363 q 418 330 418 339 l 417 312 q 406 267 416 269 q 346 273 393 264 q 296 292 296 282 q 210 359 241 307 q 189 467 181 410 q 208 566 197 535 q 259 654 223 614 q 534 816 361 768 q 690 723 652 848 q 709 609 705 678 q 711 552 710 583 q 711 525 711 540 l 711 500 m 807 831 q 669 985 772 953 q 455 972 580 1014 q 240 854 343 934 q 100 699 140 776 q 52 343 18 538 q 126 185 64 267 q 257 71 187 104 q 412 37 334 34 q 432 38 422 37 q 448 40 439 39 q 473 42 467 43 q 503 -1 492 41 q 508 -23 506 -10 l 510 -45 q 517 -89 513 -74 q 581 -136 533 -134 q 644 -92 627 -137 q 648 -29 654 -67 q 642 3 646 -16 l 639 18 l 635 33 q 616 94 627 64 q 683 141 659 116 q 846 497 822 287 q 848 552 848 521 l 848 579 l 847 606 q 834 730 847 661 q 827 754 832 739 l 823 767 l 819 780 q 807 831 807 812 q 802 848 803 845 q 802 845 801 850 q 805 835 804 840 q 807 831 807 829 z "},"r":{"ha":726,"x_min":40,"x_max":701,"o":"m 174 578 q 217 691 179 633 q 305 781 254 747 q 407 816 359 819 q 492 762 460 814 q 503 644 529 706 q 425 549 482 593 q 404 534 415 542 q 378 516 391 525 q 312 481 342 494 q 196 488 227 445 q 174 578 169 526 m 669 119 q 640 143 657 131 q 608 163 627 152 q 540 208 580 180 l 507 231 l 473 255 l 456 266 l 438 277 q 408 301 417 291 q 410 365 380 330 q 468 403 427 385 l 484 410 l 500 417 q 530 435 518 426 q 667 610 637 512 q 673 726 683 663 q 631 841 663 787 q 550 929 598 897 q 438 964 498 964 q 132 803 235 964 q 45 454 45 667 l 45 169 q 43 117 45 153 l 41 90 l 41 61 q 62 -43 40 -7 q 113 -81 85 -80 q 157 -58 135 -83 q 188 -1 176 -35 q 197 59 199 33 l 197 66 l 196 74 l 195 91 q 193 127 193 111 q 197 199 191 172 q 290 211 214 272 q 387 130 332 177 l 434 88 l 481 46 l 496 33 l 511 18 q 545 -8 530 2 q 621 -35 584 -36 q 682 -3 661 -33 q 694 68 701 26 q 669 119 690 95 z "},"s":{"ha":704,"x_min":-9,"x_max":683,"o":"m 551 956 q 620 945 588 961 q 666 903 650 930 q 676 842 683 873 q 635 783 669 808 q 555 751 606 768 l 516 739 q 479 724 495 731 q 399 680 414 694 q 369 606 371 656 q 380 548 368 585 l 385 532 l 390 517 q 397 484 395 498 l 406 453 l 416 420 q 434 355 428 381 q 454 218 454 279 q 360 50 454 110 q 170 0 281 -1 l 148 1 l 125 1 q 79 8 98 3 q 6 68 26 23 q 13 142 -9 104 q 62 192 28 166 q 128 198 85 201 l 146 197 l 164 195 q 198 193 185 194 q 260 242 266 193 q 201 464 252 336 q 186 705 154 583 q 338 873 214 811 q 447 916 376 891 l 473 926 l 500 936 q 551 956 528 946 z "},"t":{"ha":665,"x_min":1,"x_max":628,"o":"m 588 900 q 626 825 628 885 q 579 719 624 755 q 467 685 538 685 q 454 640 456 681 l 454 621 l 454 602 q 454 569 454 577 q 450 492 452 539 l 446 414 q 433 258 442 320 q 429 230 431 243 q 422 194 426 211 q 397 118 412 149 q 283 54 355 24 q 236 151 235 75 q 241 212 236 174 l 243 226 l 245 239 q 248 264 248 255 q 272 705 262 486 q 169 707 235 698 l 142 711 l 115 715 q 62 721 83 720 q 13 755 26 723 q 12 818 1 783 q 47 871 22 854 q 115 876 78 892 q 203 855 144 863 q 281 855 267 846 q 321 950 292 907 q 412 1000 361 1006 q 464 952 451 994 q 469 916 469 937 q 470 890 471 900 l 477 892 l 492 895 q 526 902 513 900 q 588 900 566 908 z "},"u":{"ha":888,"x_min":32,"x_max":842,"o":"m 801 766 q 666 851 756 861 q 605 755 584 843 q 632 682 612 726 l 640 666 l 648 650 q 660 624 656 631 q 689 370 708 515 q 576 148 669 209 q 431 118 501 99 q 319 199 369 134 q 251 339 274 258 q 236 486 229 418 q 254 572 239 508 q 267 621 262 603 q 275 671 273 649 q 212 829 290 793 q 75 798 120 872 q 34 602 37 736 q 50 366 32 494 q 83 216 66 255 q 273 23 139 82 q 548 -4 399 -33 q 777 175 701 25 q 841 471 836 294 q 842 534 842 505 q 838 612 841 576 q 801 766 829 708 z "},"v":{"ha":761,"x_min":-1,"x_max":735,"o":"m 580 940 q 495 795 504 907 q 494 748 493 775 l 494 724 l 494 701 q 492 614 496 641 q 490 583 491 606 l 489 572 l 488 560 q 487 534 488 545 q 474 410 482 460 q 384 261 449 247 q 359 288 361 267 l 358 298 l 358 309 q 356 330 358 322 q 351 350 354 339 q 343 380 347 365 q 320 463 332 422 q 247 667 284 582 q 37 818 134 927 q 22 690 -1 776 q 47 622 31 660 q 62 591 54 608 l 68 578 l 71 571 l 75 565 l 119 474 q 163 381 146 418 q 237 192 212 275 q 243 170 240 184 l 246 156 l 250 142 q 264 82 258 104 q 328 -1 288 9 q 481 45 411 -24 q 564 192 539 103 q 590 275 574 228 l 604 317 l 618 358 q 667 526 652 461 q 686 599 673 551 l 698 637 l 709 677 q 730 831 735 774 q 687 924 726 889 q 591 944 646 961 l 580 940 z "},"w":{"ha":1089,"x_min":25,"x_max":1074,"o":"m 845 859 q 766 718 756 845 q 772 665 768 694 q 783 612 776 646 q 795 527 795 548 q 785 432 796 491 q 751 309 772 363 q 600 206 690 160 q 549 266 580 216 q 535 289 543 275 l 521 313 q 491 361 502 344 q 427 438 455 417 q 355 444 389 465 q 311 357 319 422 q 307 302 307 335 l 307 289 l 306 276 q 305 253 306 261 q 271 153 303 202 q 236 119 246 115 q 211 163 229 122 q 184 311 182 229 q 189 384 184 340 l 193 421 l 197 460 l 198 465 l 199 471 l 200 484 q 202 513 201 500 q 199 578 203 553 q 123 628 186 654 q 48 488 68 605 q 38 393 41 448 q 37 351 37 376 l 36 342 l 36 333 q 35 317 35 323 q 113 9 25 132 q 233 -54 161 -56 q 357 8 301 -52 q 385 57 372 26 l 389 69 l 394 81 q 402 102 399 95 q 428 129 413 124 q 481 117 447 134 l 509 102 l 538 86 q 600 58 574 68 q 730 45 671 31 q 904 195 816 67 q 1029 465 987 315 q 1046 730 1074 625 q 892 859 1013 850 q 845 859 866 861 z "},"x":{"ha":945,"x_min":13,"x_max":937,"o":"m 861 190 q 712 231 775 205 q 575 298 659 254 q 564 304 571 300 l 558 307 l 551 310 q 524 326 534 318 q 487 368 490 347 q 530 427 484 395 l 550 439 q 570 450 557 443 q 602 468 594 463 l 692 532 q 781 596 743 568 q 822 664 816 623 q 807 736 827 702 q 754 780 787 770 q 682 764 718 791 l 642 735 l 602 707 q 521 648 549 669 q 506 637 515 644 l 490 623 q 454 596 468 606 q 380 559 412 565 q 326 610 334 551 q 323 661 322 631 q 326 684 324 672 q 328 703 326 693 q 308 781 334 747 q 247 821 285 810 q 179 817 209 832 q 140 755 146 799 q 150 547 125 649 q 163 507 153 533 l 171 486 l 177 465 q 170 384 190 416 q 108 311 152 354 l 90 294 l 73 276 q 41 240 53 256 q 18 164 13 206 q 51 98 23 126 q 113 69 79 70 q 178 102 151 68 l 190 118 l 203 134 q 230 168 218 155 q 290 224 262 207 q 344 225 314 240 q 368 208 354 220 l 380 199 l 391 190 q 519 104 453 140 q 808 2 658 28 q 886 19 852 -6 q 927 79 916 41 q 922 148 937 118 q 861 190 904 182 z "},"y":{"ha":859,"x_min":-18,"x_max":814,"o":"m 734 867 q 703 866 720 869 q 605 759 633 852 q 595 719 600 742 l 591 699 l 588 679 q 571 606 578 627 q 511 523 553 553 q 422 492 471 494 q 330 515 372 490 q 264 593 286 543 q 248 673 254 618 l 245 696 l 243 720 q 237 766 240 747 q 126 868 216 873 q 20 713 14 862 q 41 592 22 659 q 77 496 57 537 q 169 382 114 422 q 304 330 221 346 q 361 328 324 326 q 393 331 372 329 l 427 334 q 536 318 510 340 q 561 180 595 271 q 469 63 530 99 q 320 35 408 26 q 243 50 286 39 l 205 60 l 169 71 q 43 85 86 96 q 3 -15 -18 69 q 173 -149 31 -119 q 297 -158 229 -159 q 409 -148 353 -157 q 758 193 663 -109 q 806 463 795 311 q 806 720 814 585 q 801 762 804 742 q 789 807 796 787 q 734 867 771 859 z "},"z":{"ha":767,"x_min":-3,"x_max":760,"o":"m 660 209 q 728 122 760 207 q 584 26 703 55 q 484 10 539 15 q 399 7 441 7 l 379 7 l 358 7 q 313 8 333 7 q 216 18 258 10 q 60 98 104 37 q 87 316 -3 188 q 172 414 118 359 l 194 437 q 214 457 201 444 q 251 493 241 483 l 270 513 l 289 532 q 327 576 311 556 q 378 673 368 627 q 267 731 396 745 q 214 724 245 729 l 188 720 l 163 715 q 91 711 107 707 q 56 768 50 722 q 123 857 65 822 q 232 892 168 883 q 447 903 327 905 q 520 897 488 901 q 593 876 562 890 q 671 763 671 841 q 614 606 671 682 q 557 542 592 576 q 527 512 544 528 l 495 484 q 431 431 477 467 q 394 403 406 413 q 358 373 374 387 q 262 234 273 298 q 290 160 252 180 q 374 152 320 144 q 420 163 384 153 l 428 165 l 437 168 l 454 173 q 494 183 476 178 q 660 209 602 210 z "},"{":{"ha":672,"x_min":0,"x_max":0,"o":""},"|":{"ha":220,"x_min":0,"x_max":0,"o":""},"}":{"ha":539,"x_min":0,"x_max":0,"o":""},"~":{"ha":785,"x_min":0,"x_max":0,"o":""},"¡":{"ha":315,"x_min":0,"x_max":0,"o":""},"¢":{"ha":851,"x_min":0,"x_max":0,"o":""},"£":{"ha":721,"x_min":0,"x_max":0,"o":""},"¤":{"ha":798,"x_min":0,"x_max":0,"o":""},"¥":{"ha":865,"x_min":0,"x_max":0,"o":""},"¦":{"ha":262,"x_min":0,"x_max":0,"o":""},"§":{"ha":458,"x_min":0,"x_max":0,"o":""},"¨":{"ha":536,"x_min":22,"x_max":528,"o":"m 445 1171 q 497 1123 479 1171 q 528 1075 528 1107 q 449 1015 528 1025 l 441 1015 q 375 1080 375 1022 l 375 1105 q 445 1171 375 1162 m 109 1162 q 183 1083 183 1143 q 114 1005 173 1005 l 109 1005 q 22 1079 22 1026 q 109 1162 47 1162 z "},"©":{"ha":903,"x_min":0,"x_max":0,"o":""},"«":{"ha":532,"x_min":0,"x_max":0,"o":""},"®":{"ha":1057,"x_min":0,"x_max":0,"o":""},"¯":{"ha":557,"x_min":0,"x_max":0,"o":""},"°":{"ha":283,"x_min":0,"x_max":0,"o":""},"´":{"ha":374,"x_min":1,"x_max":374,"o":"m 191 1244 l 199 1253 l 205 1258 l 212 1264 q 226 1278 220 1273 q 259 1305 244 1295 q 327 1303 301 1332 q 323 1195 374 1251 q 273 1152 306 1175 l 260 1143 l 248 1134 q 225 1118 232 1124 l 206 1104 l 186 1090 q 144 1061 163 1073 q 56 1017 96 1029 q 8 1027 16 1003 q 27 1081 1 1050 q 106 1164 57 1117 l 149 1204 l 191 1244 z "},"¶":{"ha":515,"x_min":0,"x_max":0,"o":""},"·":{"ha":245,"x_min":0,"x_max":0,"o":""},"∙":{"ha":245,"x_min":0,"x_max":0,"o":""},"¸":{"ha":304,"x_min":11,"x_max":296,"o":"m 130 112 q 159 47 178 112 q 151 20 156 36 l 146 7 l 141 -5 q 130 -43 130 -34 q 192 -54 159 -41 q 245 -89 225 -67 q 237 -197 296 -143 q 171 -232 210 -222 q 96 -235 133 -242 q 56 -222 77 -235 q 23 -193 35 -210 q 16 -163 11 -175 q 49 -150 21 -150 q 79 -155 64 -150 l 93 -160 l 106 -165 q 166 -163 137 -177 q 170 -120 227 -136 q 146 -115 160 -117 q 120 -111 136 -113 q 83 -104 88 -105 q 58 -62 61 -97 q 67 12 56 -31 q 96 81 79 52 q 130 112 115 112 z "},"»":{"ha":532,"x_min":0,"x_max":0,"o":""},"¿":{"ha":794,"x_min":0,"x_max":0,"o":""},"À":{"ha":1136,"x_min":16,"x_max":1061,"o":"m 758 540 l 758 539 q 755 534 755 536 q 758 539 755 534 l 756 536 l 755 534 q 612 484 730 491 q 517 484 570 481 q 437 491 477 486 q 330 581 338 501 q 338 656 327 612 q 363 736 345 688 l 370 757 q 409 842 387 800 q 469 930 438 897 q 631 939 553 1021 q 752 748 708 857 q 759 540 806 617 l 758 540 m 758 540 q 761 544 760 543 q 758 540 762 545 m 1038 109 l 1029 150 q 998 357 1003 275 l 994 433 q 987 509 990 476 q 954 657 976 593 q 897 795 926 731 q 814 945 857 880 q 571 1128 701 1114 q 348 1010 443 1143 q 279 887 311 960 q 231 764 257 838 q 168 547 202 680 l 140 437 q 111 327 123 372 q 64 184 88 247 q 49 150 59 171 l 40 134 l 33 117 q 22 45 16 78 q 114 -32 37 -23 q 198 -9 172 -38 q 264 98 229 25 l 279 127 l 293 155 q 326 209 310 186 q 570 354 424 341 l 595 356 l 621 358 q 673 360 650 360 q 774 347 734 361 q 836 266 825 330 q 838 203 839 241 l 836 169 l 833 134 q 842 7 827 47 q 939 -62 865 -53 q 1033 -33 1003 -71 q 1048 66 1061 4 l 1038 109 m 507 1466 l 549 1426 q 629 1342 598 1378 q 647 1289 654 1312 q 600 1278 640 1264 q 511 1322 560 1291 q 469 1351 492 1334 l 449 1365 l 431 1379 q 408 1395 423 1385 l 395 1404 l 382 1413 q 332 1456 350 1436 q 329 1565 282 1512 q 397 1566 354 1593 q 430 1539 412 1556 q 444 1525 435 1534 l 450 1519 l 456 1514 l 465 1505 l 507 1466 z "},"Á":{"ha":1136,"x_min":0,"x_max":0,"o":""},"Â":{"ha":1136,"x_min":0,"x_max":0,"o":""},"Ã":{"ha":1136,"x_min":0,"x_max":0,"o":""},"Ä":{"ha":1136,"x_min":0,"x_max":0,"o":""},"Å":{"ha":1136,"x_min":0,"x_max":0,"o":""},"Æ":{"ha":1754,"x_min":26,"x_max":1782,"o":"m 359 533 q 823 522 576 457 q 755 771 823 582 q 682 916 710 873 q 551 970 617 998 q 421 768 485 943 q 402 714 421 753 q 372 597 402 711 l 355 533 l 359 533 m 1531 -3 q 1406 -63 1531 -3 q 1068 -37 1280 -124 q 867 218 857 50 q 852 325 854 279 q 738 355 823 343 l 732 355 q 591 353 645 353 l 583 353 q 323 153 399 318 q 262 32 319 153 q 161 -56 208 -56 l 127 -56 q 98 -45 116 -56 l 95 -45 q 26 12 45 -45 l 26 29 q 449 1095 265 975 q 591 1137 499 1137 q 710 1096 667 1137 q 789 1021 752 1072 q 829 969 803 998 q 889 960 886 901 q 1004 1081 893 1019 q 1211 1132 1074 1122 q 1385 1140 1348 1141 l 1442 1138 q 1550 1116 1500 1136 q 1611 1035 1598 1088 l 1610 1003 q 1567 943 1609 977 q 1500 899 1563 932 q 1232 855 1442 865 q 1117 759 1132 837 q 1116 730 1116 745 q 1273 592 1116 581 q 1304 598 1283 592 q 1545 651 1455 660 q 1645 586 1634 643 l 1645 574 q 1565 503 1643 519 q 1234 447 1384 490 q 1081 340 1084 404 q 1108 224 1078 277 q 1228 157 1145 160 q 1501 172 1371 123 q 1706 169 1631 220 q 1531 -3 1782 119 z "},"Ç":{"ha":1019,"x_min":-25,"x_max":1041,"o":"m 452 37 q 117 290 252 92 q 41 765 -25 499 q 260 1077 88 953 q 625 1192 429 1200 q 732 1169 679 1190 q 844 1036 844 1129 q 801 975 844 989 q 705 970 769 964 q 648 979 683 973 l 618 983 l 590 988 q 488 997 522 1000 q 286 904 363 987 q 201 705 214 827 q 239 450 188 578 q 351 254 292 315 q 562 174 437 182 q 676 176 607 172 l 705 179 l 736 181 q 798 185 773 184 q 879 183 838 188 q 957 165 927 178 q 959 45 1041 127 q 730 -20 886 -27 q 537 -48 551 0 q 523 -104 523 -96 l 583 -110 q 656 -161 643 -119 q 661 -197 661 -186 l 661 -205 q 534 -305 662 -292 l 488 -305 q 409 -273 450 -305 q 401 -248 401 -258 q 439 -216 408 -216 q 488 -237 450 -216 l 528 -237 q 593 -208 562 -237 l 593 -202 q 566 -175 587 -175 q 463 -159 463 -175 q 450 -123 456 -159 l 450 -113 q 474 -20 450 -78 q 452 37 488 23 z "},"È":{"ha":1050,"x_min":-90,"x_max":873,"o":"m 238 360 q 391 467 241 423 q 723 522 539 509 q 802 593 800 539 l 803 606 q 703 671 792 662 q 609 661 661 675 q 564 647 591 656 l 541 639 l 519 631 q 330 617 418 597 q 263 713 266 631 q 304 834 261 790 q 381 872 332 863 q 424 877 398 875 l 446 878 l 468 879 q 650 911 584 886 q 736 966 701 932 q 766 1057 775 1006 q 707 1135 756 1107 q 627 1157 676 1152 q 584 1159 609 1158 l 563 1160 l 543 1160 q 368 1152 499 1161 q 161 1101 232 1141 q 56 910 51 1038 l 59 778 q 47 596 60 635 q -26 557 33 557 q -88 485 -85 557 q 54 440 -90 413 q 82 349 83 437 q 72 268 81 321 l 68 246 l 64 224 q 58 180 60 199 q 102 26 47 75 q 174 1 127 5 q 214 0 189 0 l 233 1 l 253 0 q 574 16 536 12 l 798 46 q 873 117 853 54 q 728 200 872 197 q 558 188 658 200 q 386 177 458 174 q 265 244 302 180 q 238 360 235 296 m 489 1473 l 532 1433 q 611 1350 581 1385 q 629 1296 636 1319 q 581 1285 622 1272 q 493 1329 543 1298 q 452 1358 474 1341 l 431 1373 l 412 1387 q 391 1402 406 1392 l 378 1411 l 365 1421 q 315 1463 332 1444 q 311 1572 264 1520 q 379 1573 336 1600 q 412 1547 394 1564 q 427 1533 418 1541 l 433 1527 l 439 1521 l 447 1512 l 489 1473 z "},"É":{"ha":1050,"x_min":0,"x_max":0,"o":""},"Ê":{"ha":1050,"x_min":0,"x_max":0,"o":""},"Ë":{"ha":1050,"x_min":0,"x_max":0,"o":""},"Ì":{"ha":636,"x_min":0,"x_max":0,"o":""},"Í":{"ha":636,"x_min":0,"x_max":0,"o":""},"Î":{"ha":636,"x_min":0,"x_max":0,"o":""},"Ï":{"ha":636,"x_min":19,"x_max":575,"o":"m 507 119 q 454 160 488 140 q 373 300 391 198 q 366 388 367 338 q 366 429 366 407 l 367 449 l 368 467 l 372 560 l 376 652 q 381 837 381 763 l 381 854 l 380 871 q 382 900 380 889 q 413 951 387 930 q 452 970 425 961 l 475 977 q 498 985 489 981 q 555 1048 553 1006 q 478 1109 557 1105 l 463 1109 l 290 1101 l 161 1105 q 140 1106 149 1106 q 118 1105 128 1106 q 73 1099 92 1104 q 20 1036 22 1084 q 57 977 19 998 q 93 962 68 971 l 111 955 q 128 947 121 951 q 219 812 209 906 q 226 650 227 747 l 224 570 l 224 489 q 228 425 224 465 l 231 391 l 233 358 q 220 229 237 278 q 182 182 209 198 l 171 175 l 158 168 q 132 149 142 159 q 101 69 80 106 q 184 26 120 35 q 447 25 332 2 q 524 64 509 37 q 507 119 536 88 m 492 1381 q 545 1333 528 1381 q 575 1285 575 1318 q 497 1225 575 1235 l 488 1225 q 423 1290 423 1232 l 423 1316 q 492 1381 423 1373 m 157 1372 q 231 1293 231 1353 q 161 1215 221 1215 l 157 1215 q 70 1289 70 1236 q 157 1372 95 1372 z "},"Ð":{"ha":989,"x_min":0,"x_max":0,"o":""},"Ñ":{"ha":1131,"x_min":0,"x_max":0,"o":""},"Ò":{"ha":1004,"x_min":0,"x_max":0,"o":""},"Ó":{"ha":1004,"x_min":22,"x_max":975,"o":"m 777 429 q 732 293 772 355 q 630 199 693 235 q 494 160 566 163 q 348 191 418 157 q 223 388 239 243 q 256 633 211 502 l 264 657 l 273 682 q 291 731 282 711 q 345 817 314 787 q 437 886 401 872 q 549 899 469 899 q 737 719 677 899 q 770 564 760 651 q 777 429 779 494 m 659 1051 q 589 1069 630 1063 q 553 1073 574 1071 l 517 1076 q 251 1053 355 1088 q 148 985 182 1029 q 119 914 123 976 q 118 867 117 895 l 118 857 l 119 848 q 119 834 119 838 q 87 707 113 789 l 77 675 l 67 642 q 50 576 56 604 q 41 323 22 435 q 161 108 66 184 q 592 9 335 -32 q 747 64 672 22 q 822 128 781 83 l 839 147 l 856 166 q 888 201 876 189 q 962 357 944 256 q 967 530 975 429 q 857 881 953 715 q 751 996 819 945 q 699 1031 726 1015 q 659 1051 677 1043 m 597 1425 l 606 1434 l 612 1439 l 618 1445 q 633 1459 627 1454 q 666 1486 651 1476 q 734 1485 708 1513 q 730 1376 780 1432 q 680 1333 712 1356 l 667 1324 l 654 1315 q 632 1299 639 1305 l 613 1285 l 593 1271 q 551 1242 570 1254 q 463 1198 503 1211 q 415 1208 422 1184 q 434 1262 408 1232 q 513 1345 464 1298 l 555 1385 l 597 1425 z "},"Ô":{"ha":1004,"x_min":0,"x_max":0,"o":""},"Õ":{"ha":1004,"x_min":0,"x_max":0,"o":""},"Ö":{"ha":1004,"x_min":22,"x_max":975,"o":"m 777 429 q 732 293 772 355 q 630 199 693 235 q 494 160 566 163 q 348 191 418 157 q 223 388 239 243 q 256 633 211 502 l 264 657 l 273 682 q 291 731 282 711 q 345 817 314 787 q 437 886 401 872 q 549 899 469 899 q 737 719 677 899 q 770 564 760 651 q 777 429 779 494 m 659 1051 q 589 1069 630 1063 q 553 1073 574 1071 l 517 1076 q 251 1053 355 1088 q 148 985 182 1029 q 119 914 123 976 q 118 867 117 895 l 118 857 l 119 848 q 119 834 119 838 q 87 707 113 789 l 77 675 l 67 642 q 50 576 56 604 q 41 323 22 435 q 161 108 66 184 q 592 9 335 -32 q 747 64 672 22 q 822 128 781 83 l 839 147 l 856 166 q 888 201 876 189 q 962 357 944 256 q 967 530 975 429 q 857 881 953 715 q 751 996 819 945 q 699 1031 726 1015 q 659 1051 677 1043 m 671 1348 q 732 1293 711 1348 q 767 1236 767 1274 q 675 1166 767 1178 l 665 1166 q 590 1242 590 1175 l 590 1272 q 671 1348 590 1338 m 324 1345 q 398 1267 398 1326 q 329 1189 388 1189 l 324 1189 q 237 1263 237 1210 q 324 1345 262 1345 z "},"×":{"ha":533,"x_min":0,"x_max":0,"o":""},"Ø":{"ha":987,"x_min":32,"x_max":976,"o":"m 616 184 q 465 154 536 140 q 435 221 422 162 q 452 275 439 242 l 462 302 l 515 431 l 538 483 l 561 535 l 633 700 q 637 711 635 704 l 642 724 q 653 753 648 743 q 694 785 669 786 q 744 726 724 783 q 758 680 751 706 q 762 659 760 671 l 764 651 l 766 644 q 755 320 819 417 q 616 184 691 224 m 513 658 l 477 577 q 392 377 433 480 q 340 256 351 274 q 307 231 324 230 q 259 264 288 231 q 237 311 246 279 q 230 337 234 321 l 227 350 l 224 361 q 224 559 203 452 q 296 742 245 659 q 436 878 354 835 q 495 898 463 893 q 555 890 534 903 q 579 817 589 868 q 566 775 576 799 q 557 755 562 766 l 553 747 l 550 739 l 513 658 m 899 800 q 833 916 865 874 q 822 929 828 922 l 817 935 l 811 940 q 795 959 799 953 q 786 1015 781 978 q 793 1041 788 1026 l 798 1054 l 803 1067 q 809 1118 814 1098 q 781 1147 803 1143 q 743 1135 762 1150 q 659 1073 682 1082 q 555 1069 627 1060 q 448 1076 498 1076 q 321 1070 378 1078 q 131 959 168 1048 q 121 887 120 932 l 121 869 l 121 851 q 119 814 121 830 q 99 734 113 779 l 87 694 l 75 654 q 35 398 32 517 q 113 155 38 251 q 205 74 147 111 l 216 68 l 224 64 q 239 56 235 58 q 243 27 251 47 l 239 18 l 235 7 q 229 -15 231 -5 q 226 -60 222 -41 q 268 -89 234 -100 q 315 -48 298 -79 q 334 -4 326 -26 q 358 12 342 15 q 374 8 362 12 l 383 5 l 393 3 q 534 -1 460 -7 q 804 104 710 13 q 865 165 842 140 q 920 233 899 202 q 968 374 958 290 q 967 553 976 437 q 899 800 958 669 z "},"Ù":{"ha":1035,"x_min":0,"x_max":0,"o":""},"Ú":{"ha":1035,"x_min":0,"x_max":0,"o":""},"Û":{"ha":1035,"x_min":0,"x_max":0,"o":""},"Ü":{"ha":1035,"x_min":0,"x_max":0,"o":""},"Ý":{"ha":959,"x_min":0,"x_max":0,"o":""},"Þ":{"ha":994,"x_min":0,"x_max":0,"o":""},"ß":{"ha":918,"x_min":18,"x_max":913,"o":"m 528 -65 q 372 38 426 -52 q 374 170 323 121 q 509 216 417 212 q 578 227 542 218 q 652 254 621 237 q 711 368 735 298 q 599 492 692 425 l 581 505 l 564 517 q 530 546 544 532 q 480 616 495 578 q 468 699 466 650 q 472 741 469 715 l 475 762 l 477 783 q 480 861 482 819 q 466 948 478 910 q 350 1043 435 1050 q 239 937 278 1038 q 215 850 225 900 q 208 809 211 831 q 205 791 206 801 l 203 783 l 202 774 q 181 486 184 652 q 183 385 180 442 l 186 335 l 190 284 q 197 83 199 153 q 187 24 196 55 q 161 -31 177 -9 q 66 -33 121 -87 q 21 81 26 6 q 22 146 20 109 l 24 178 q 25 208 25 197 q 25 368 28 269 l 22 448 q 21 528 21 494 q 33 787 18 682 q 262 1168 73 1090 q 409 1195 338 1198 q 604 1046 566 1189 q 619 912 616 996 l 620 878 l 621 843 q 623 777 621 801 q 676 625 627 700 q 725 562 695 596 l 751 530 l 779 500 q 873 372 847 423 q 904 209 913 294 q 770 5 892 92 q 528 -65 650 -81 z "},"à":{"ha":861,"x_min":18,"x_max":850,"o":"m 541 385 q 517 380 520 380 q 525 382 515 380 q 541 385 535 384 q 541 385 548 387 q 400 409 433 363 q 394 557 370 450 q 399 581 395 562 q 401 596 400 590 l 405 614 q 426 690 414 659 q 513 770 459 783 q 558 715 542 762 q 568 676 563 700 l 570 667 l 572 658 q 576 642 574 648 q 587 605 580 629 l 593 586 l 600 567 q 614 491 612 521 q 541 385 621 408 m 768 456 q 747 578 758 522 q 710 715 730 654 q 571 930 655 878 q 332 852 441 1011 q 256 710 293 796 q 229 642 243 680 q 218 612 224 629 l 214 598 l 209 586 q 165 469 192 539 l 119 350 q 37 112 66 208 q 37 12 18 47 q 121 -3 58 -28 q 214 93 180 22 l 227 123 l 240 153 q 277 209 257 187 q 399 243 302 237 q 475 243 432 244 q 508 243 490 243 l 515 243 l 522 243 q 533 242 529 242 q 648 218 616 240 q 682 110 690 188 q 679 84 682 101 l 677 69 l 675 55 q 672 -5 670 18 q 743 -75 677 -73 q 825 157 850 -71 q 794 333 817 227 q 785 372 791 349 l 781 389 l 778 406 q 768 456 770 441 m 466 1204 l 509 1164 q 588 1081 557 1117 q 606 1027 613 1050 q 559 1017 599 1003 q 471 1061 519 1029 q 429 1090 452 1073 l 409 1104 l 390 1118 q 368 1134 382 1124 l 355 1143 l 342 1152 q 292 1195 309 1175 q 288 1303 241 1251 q 356 1305 313 1332 q 389 1278 371 1295 q 404 1264 395 1273 l 410 1258 l 416 1253 l 424 1244 l 466 1204 z "},"á":{"ha":861,"x_min":0,"x_max":0,"o":""},"â":{"ha":861,"x_min":0,"x_max":0,"o":""},"ã":{"ha":861,"x_min":0,"x_max":0,"o":""},"ä":{"ha":861,"x_min":0,"x_max":0,"o":""},"å":{"ha":861,"x_min":0,"x_max":0,"o":""},"æ":{"ha":1408,"x_min":26,"x_max":1426,"o":"m 1226 31 q 1127 -18 1226 31 q 858 3 1027 -66 q 697 206 688 72 q 685 292 687 256 q 594 316 661 307 l 589 316 q 476 314 519 314 l 470 314 q 262 155 323 286 q 214 58 260 155 q 134 -12 171 -12 l 106 -12 q 83 -3 98 -12 l 81 -3 q 26 42 41 -3 l 26 56 q 363 905 217 810 q 476 940 404 940 q 572 907 538 940 q 635 847 605 888 q 667 806 646 829 q 715 798 712 751 q 806 895 718 845 q 971 935 861 927 q 1110 942 1080 943 l 1155 941 q 1241 923 1202 939 q 1290 858 1280 901 l 1289 833 q 1255 785 1289 812 q 1202 749 1251 777 q 988 715 1156 723 q 896 638 908 700 q 896 614 896 627 q 1021 505 895 496 q 1046 510 1029 505 q 1237 552 1166 559 q 1318 500 1309 545 l 1317 490 q 1254 433 1316 447 q 989 389 1109 423 q 867 304 869 355 q 889 212 865 254 q 985 158 918 160 q 1202 170 1099 131 q 1366 168 1306 208 q 1226 31 1426 127 m 440 437 q 463 433 460 433 q 455 435 465 433 q 440 437 446 437 q 440 437 433 439 q 574 460 543 417 q 581 601 603 500 q 576 624 579 606 q 573 639 574 633 l 570 655 q 550 728 560 698 q 466 804 517 817 q 424 752 439 797 q 414 714 419 737 l 412 705 l 410 697 q 406 682 408 688 q 396 647 403 670 l 390 629 l 385 610 q 370 538 372 567 q 440 437 365 460 z "},"ç":{"ha":873,"x_min":3,"x_max":869,"o":"m 355 -117 l 355 -128 q 472 -180 367 -186 q 496 -196 493 -180 q 472 -231 499 -212 q 401 -235 446 -250 q 345 -220 356 -220 q 307 -253 313 -220 q 315 -277 307 -262 q 393 -310 357 -310 l 439 -310 q 507 -291 488 -310 q 567 -210 567 -264 l 567 -201 q 562 -166 567 -191 q 429 -109 525 -100 q 441 -62 429 -102 q 475 -24 453 -22 q 665 2 597 -36 q 721 52 706 24 q 707 119 739 87 q 657 140 690 138 q 629 140 646 141 l 615 140 l 602 138 q 484 144 526 134 q 430 163 461 149 l 404 176 l 378 189 q 204 394 237 252 q 235 674 174 521 q 397 783 274 775 q 604 740 494 789 q 652 711 621 732 l 665 703 l 677 694 q 704 677 692 684 q 813 669 769 642 q 833 776 869 726 q 789 814 819 795 q 736 846 771 827 q 442 937 595 947 q 191 829 302 928 q 43 588 81 732 q 62 276 3 433 q 229 74 106 162 q 348 5 308 18 q 372 -46 389 -7 q 355 -117 355 -86 z "},"è":{"ha":750,"x_min":26,"x_max":706,"o":"m 192 469 q 216 587 186 515 q 273 696 239 647 q 369 760 300 734 q 467 745 446 791 q 439 614 490 693 q 344 513 397 550 q 271 484 316 494 q 231 476 256 480 l 212 472 l 192 469 m 627 265 q 562 253 597 265 q 530 241 549 249 l 500 228 q 367 212 424 197 q 270 269 313 227 q 214 364 224 312 q 446 437 342 363 q 586 636 555 513 q 583 795 607 722 q 505 902 561 863 q 378 940 450 941 q 231 891 303 939 q 99 745 149 838 q 39 553 52 660 q 46 350 26 451 q 117 169 67 248 q 473 30 237 -18 q 650 97 576 52 q 699 189 706 132 q 627 265 692 248 q 625 264 622 265 q 631 262 627 263 q 637 262 637 262 q 627 265 637 262 m 389 1238 l 431 1198 q 511 1115 480 1151 q 529 1061 536 1084 q 481 1050 522 1037 q 393 1095 442 1063 q 351 1124 374 1107 l 331 1138 l 312 1152 q 290 1168 305 1158 l 277 1177 l 264 1186 q 214 1229 232 1209 q 210 1337 164 1285 q 279 1339 236 1366 q 311 1312 293 1329 q 326 1298 317 1307 l 332 1292 l 338 1286 l 347 1278 l 389 1238 z "},"é":{"ha":750,"x_min":0,"x_max":0,"o":""},"ê":{"ha":750,"x_min":0,"x_max":0,"o":""},"ë":{"ha":750,"x_min":0,"x_max":0,"o":""},"ì":{"ha":300,"x_min":0,"x_max":0,"o":""},"í":{"ha":300,"x_min":0,"x_max":0,"o":""},"î":{"ha":300,"x_min":0,"x_max":0,"o":""},"ï":{"ha":312,"x_min":-24,"x_max":427,"o":"m 200 973 q 187 973 188 973 q 193 972 186 972 l 201 972 q 200 973 205 972 q 71 802 107 973 q 52 664 58 743 q 49 605 50 638 l 48 592 l 47 581 q 47 560 47 568 l 42 486 l 38 410 q 29 260 33 317 q 27 203 26 227 q 34 142 28 168 q 109 62 51 72 q 219 180 192 48 q 232 288 228 222 q 233 313 233 298 l 234 324 l 235 335 q 237 371 236 360 q 240 391 238 376 l 241 397 l 241 405 q 243 420 243 413 q 252 498 248 461 q 267 700 264 612 q 200 973 275 969 m 345 1225 q 397 1177 379 1225 q 427 1129 427 1162 q 349 1069 427 1079 l 340 1069 q 275 1134 275 1076 l 275 1160 q 345 1225 275 1217 m 63 1230 q 137 1151 137 1211 q 67 1073 127 1073 l 63 1073 q -24 1147 -24 1094 q 63 1230 1 1230 z "},"ð":{"ha":884,"x_min":0,"x_max":0,"o":""},"ñ":{"ha":906,"x_min":0,"x_max":0,"o":""},"ò":{"ha":774,"x_min":0,"x_max":0,"o":""},"ó":{"ha":807,"x_min":45,"x_max":794,"o":"m 434 900 q 680 753 567 900 q 793 414 793 606 q 601 140 794 254 q 254 40 431 42 q 85 166 142 40 q 45 385 45 259 q 136 724 45 576 q 434 900 245 899 m 243 391 q 241 382 242 385 q 224 355 240 380 q 208 311 208 331 q 243 243 208 279 l 294 218 q 363 206 316 208 l 420 211 q 545 304 463 214 q 629 510 627 395 q 578 670 629 597 q 429 753 519 753 l 406 752 q 285 642 327 752 q 243 391 248 538 m 589 1230 l 598 1238 l 604 1244 l 610 1250 q 625 1264 618 1259 q 657 1291 643 1281 q 725 1289 700 1318 q 722 1181 772 1237 q 672 1138 704 1161 l 659 1128 l 646 1120 q 624 1104 631 1109 l 605 1090 l 585 1076 q 543 1046 562 1059 q 455 1002 494 1015 q 407 1013 414 989 q 425 1067 400 1036 q 505 1150 456 1103 l 547 1190 l 589 1230 z "},"ô":{"ha":774,"x_min":0,"x_max":0,"o":""},"õ":{"ha":774,"x_min":0,"x_max":0,"o":""},"ö":{"ha":774,"x_min":45,"x_max":745,"o":"m 408 843 q 638 705 532 843 q 743 389 743 568 q 564 134 745 240 q 239 40 405 42 q 82 157 136 40 q 45 362 45 245 q 130 680 45 541 q 408 843 232 842 m 231 368 q 228 360 229 362 q 212 335 227 357 q 197 293 197 312 q 231 229 197 264 l 277 206 q 342 195 298 197 l 395 200 q 512 287 435 203 q 590 479 589 371 q 543 628 590 559 q 404 706 488 706 l 382 705 q 269 602 308 705 q 231 368 234 505 m 550 1068 q 597 1025 582 1068 q 625 981 625 1010 q 554 926 625 936 l 546 926 q 487 985 487 933 l 487 1008 q 550 1068 487 1060 m 283 1059 q 351 989 351 1042 q 288 918 341 918 l 283 918 q 205 985 205 937 q 283 1059 227 1059 z "},"÷":{"ha":722,"x_min":0,"x_max":0,"o":""},"ø":{"ha":774,"x_min":22,"x_max":746,"o":"m 505 285 l 492 271 q 463 243 475 254 q 395 211 427 214 l 383 210 l 372 208 q 353 208 359 207 q 345 240 335 212 q 511 537 406 428 q 576 547 551 578 q 592 465 597 519 q 517 298 583 370 l 505 285 m 191 302 q 210 460 173 353 q 241 543 222 499 q 256 576 248 559 q 263 590 260 583 q 269 602 266 595 q 300 650 279 623 q 351 701 325 682 q 458 699 420 757 q 451 606 478 669 q 426 557 441 584 q 413 536 420 548 l 407 527 l 402 519 q 382 490 394 506 l 361 461 q 323 402 335 425 q 315 385 320 397 l 309 373 l 304 360 q 277 307 289 326 q 206 277 240 243 q 191 302 197 287 m 657 720 q 655 770 652 746 q 661 789 656 779 l 666 799 l 671 808 q 681 849 684 831 q 635 871 674 892 q 618 861 628 868 l 610 856 l 602 850 q 576 833 583 836 q 487 837 541 820 l 465 844 l 443 850 q 396 856 417 857 q 205 770 294 850 q 87 594 125 698 q 64 239 22 418 q 124 108 84 156 q 136 96 129 102 l 142 92 l 146 88 q 145 64 153 80 l 130 31 l 114 -3 q 128 -34 100 -31 q 152 -31 139 -35 q 170 -24 164 -28 q 190 0 182 -15 l 195 12 l 200 24 q 244 52 212 52 q 593 161 428 54 q 705 279 665 208 q 745 438 746 353 q 711 602 745 524 q 696 630 706 613 l 682 659 q 657 720 663 695 z "},"ù":{"ha":888,"x_min":0,"x_max":0,"o":""},"ú":{"ha":888,"x_min":0,"x_max":0,"o":""},"û":{"ha":888,"x_min":0,"x_max":0,"o":""},"ü":{"ha":888,"x_min":0,"x_max":0,"o":""},"ý":{"ha":946,"x_min":0,"x_max":0,"o":""},"þ":{"ha":833,"x_min":0,"x_max":0,"o":""},"ÿ":{"ha":859,"x_min":0,"x_max":0,"o":""},"Ā":{"ha":1136,"x_min":0,"x_max":0,"o":""},"ā":{"ha":861,"x_min":0,"x_max":0,"o":""},"Ă":{"ha":1136,"x_min":0,"x_max":0,"o":""},"ă":{"ha":861,"x_min":0,"x_max":0,"o":""},"Ą":{"ha":1136,"x_min":0,"x_max":0,"o":""},"ą":{"ha":861,"x_min":0,"x_max":0,"o":""},"Ć":{"ha":1019,"x_min":0,"x_max":0,"o":""},"ć":{"ha":873,"x_min":0,"x_max":0,"o":""},"Ĉ":{"ha":1019,"x_min":0,"x_max":0,"o":""},"ĉ":{"ha":873,"x_min":0,"x_max":0,"o":""},"Ċ":{"ha":1019,"x_min":0,"x_max":0,"o":""},"ċ":{"ha":873,"x_min":0,"x_max":0,"o":""},"Č":{"ha":1019,"x_min":0,"x_max":0,"o":""},"č":{"ha":873,"x_min":0,"x_max":0,"o":""},"Ď":{"ha":989,"x_min":0,"x_max":0,"o":""},"ď":{"ha":928,"x_min":0,"x_max":0,"o":""},"Đ":{"ha":989,"x_min":0,"x_max":0,"o":""},"đ":{"ha":884,"x_min":0,"x_max":0,"o":""},"Ē":{"ha":1050,"x_min":0,"x_max":0,"o":""},"ē":{"ha":750,"x_min":0,"x_max":0,"o":""},"Ĕ":{"ha":1050,"x_min":0,"x_max":0,"o":""},"ĕ":{"ha":750,"x_min":0,"x_max":0,"o":""},"Ė":{"ha":1050,"x_min":0,"x_max":0,"o":""},"ė":{"ha":750,"x_min":0,"x_max":0,"o":""},"Ę":{"ha":991,"x_min":0,"x_max":0,"o":""},"ę":{"ha":750,"x_min":0,"x_max":0,"o":""},"Ě":{"ha":1050,"x_min":0,"x_max":0,"o":""},"ě":{"ha":750,"x_min":0,"x_max":0,"o":""},"Ĝ":{"ha":1037,"x_min":0,"x_max":0,"o":""},"ĝ":{"ha":1016,"x_min":0,"x_max":0,"o":""},"Ğ":{"ha":1037,"x_min":0,"x_max":0,"o":""},"ğ":{"ha":1016,"x_min":0,"x_max":0,"o":""},"Ġ":{"ha":1037,"x_min":0,"x_max":0,"o":""},"ġ":{"ha":1016,"x_min":0,"x_max":0,"o":""},"Ģ":{"ha":1038,"x_min":0,"x_max":0,"o":""},"ģ":{"ha":1016,"x_min":0,"x_max":0,"o":""},"Ĥ":{"ha":949,"x_min":0,"x_max":0,"o":""},"ĥ":{"ha":711,"x_min":0,"x_max":0,"o":""},"Ħ":{"ha":949,"x_min":0,"x_max":0,"o":""},"ħ":{"ha":711,"x_min":0,"x_max":0,"o":""},"Ĩ":{"ha":588,"x_min":0,"x_max":0,"o":""},"ĩ":{"ha":300,"x_min":0,"x_max":0,"o":""},"Ī":{"ha":636,"x_min":0,"x_max":0,"o":""},"ī":{"ha":300,"x_min":0,"x_max":0,"o":""},"Ĭ":{"ha":636,"x_min":0,"x_max":0,"o":""},"ĭ":{"ha":300,"x_min":0,"x_max":0,"o":""},"Į":{"ha":588,"x_min":0,"x_max":0,"o":""},"į":{"ha":300,"x_min":0,"x_max":0,"o":""},"İ":{"ha":636,"x_min":0,"x_max":0,"o":""},"ı":{"ha":300,"x_min":0,"x_max":0,"o":""},"Ĳ":{"ha":1438,"x_min":0,"x_max":0,"o":""},"ĳ":{"ha":979,"x_min":0,"x_max":0,"o":""},"Ĵ":{"ha":850,"x_min":0,"x_max":0,"o":""},"ĵ":{"ha":693,"x_min":0,"x_max":0,"o":""},"Ķ":{"ha":922,"x_min":0,"x_max":0,"o":""},"ķ":{"ha":862,"x_min":0,"x_max":0,"o":""},"ĸ":{"ha":862,"x_min":0,"x_max":0,"o":""},"Ĺ":{"ha":771,"x_min":0,"x_max":0,"o":""},"ĺ":{"ha":728,"x_min":0,"x_max":0,"o":""},"Ļ":{"ha":806,"x_min":0,"x_max":0,"o":""},"ļ":{"ha":728,"x_min":0,"x_max":0,"o":""},"Ľ":{"ha":806,"x_min":0,"x_max":0,"o":""},"ľ":{"ha":728,"x_min":0,"x_max":0,"o":""},"Ŀ":{"ha":806,"x_min":0,"x_max":0,"o":""},"ŀ":{"ha":728,"x_min":0,"x_max":0,"o":""},"Ł":{"ha":850,"x_min":0,"x_max":0,"o":""},"ł":{"ha":718,"x_min":0,"x_max":0,"o":""},"Ń":{"ha":1131,"x_min":0,"x_max":0,"o":""},"ń":{"ha":743,"x_min":0,"x_max":0,"o":""},"Ņ":{"ha":1072,"x_min":0,"x_max":0,"o":""},"ņ":{"ha":743,"x_min":0,"x_max":0,"o":""},"Ň":{"ha":1131,"x_min":0,"x_max":0,"o":""},"ň":{"ha":718,"x_min":0,"x_max":0,"o":""},"ŉ":{"ha":718,"x_min":0,"x_max":0,"o":""},"Ŋ":{"ha":1138,"x_min":0,"x_max":0,"o":""},"ŋ":{"ha":852,"x_min":0,"x_max":0,"o":""},"Ō":{"ha":987,"x_min":0,"x_max":0,"o":""},"ō":{"ha":774,"x_min":0,"x_max":0,"o":""},"Ŏ":{"ha":987,"x_min":0,"x_max":0,"o":""},"ŏ":{"ha":774,"x_min":0,"x_max":0,"o":""},"Ő":{"ha":987,"x_min":0,"x_max":0,"o":""},"ő":{"ha":774,"x_min":0,"x_max":0,"o":""},"Œ":{"ha":1408,"x_min":0,"x_max":0,"o":""},"œ":{"ha":1152,"x_min":0,"x_max":0,"o":""},"Ŕ":{"ha":827,"x_min":0,"x_max":0,"o":""},"ŕ":{"ha":726,"x_min":0,"x_max":0,"o":""},"Ŗ":{"ha":827,"x_min":0,"x_max":0,"o":""},"ŗ":{"ha":726,"x_min":0,"x_max":0,"o":""},"Ř":{"ha":827,"x_min":0,"x_max":0,"o":""},"ř":{"ha":726,"x_min":0,"x_max":0,"o":""},"Ś":{"ha":1042,"x_min":0,"x_max":0,"o":""},"ś":{"ha":728,"x_min":0,"x_max":0,"o":""},"Ŝ":{"ha":910,"x_min":0,"x_max":0,"o":""},"ŝ":{"ha":728,"x_min":0,"x_max":0,"o":""},"Ş":{"ha":910,"x_min":0,"x_max":0,"o":""},"ş":{"ha":728,"x_min":0,"x_max":0,"o":""},"Š":{"ha":1042,"x_min":0,"x_max":0,"o":""},"š":{"ha":728,"x_min":0,"x_max":0,"o":""},"Ţ":{"ha":1071,"x_min":0,"x_max":0,"o":""},"ţ":{"ha":676,"x_min":0,"x_max":0,"o":""},"Ť":{"ha":1078,"x_min":0,"x_max":0,"o":""},"ť":{"ha":659,"x_min":0,"x_max":0,"o":""},"Ŧ":{"ha":1071,"x_min":0,"x_max":0,"o":""},"ŧ":{"ha":659,"x_min":0,"x_max":0,"o":""},"Ũ":{"ha":1035,"x_min":0,"x_max":0,"o":""},"ũ":{"ha":935,"x_min":0,"x_max":0,"o":""},"Ū":{"ha":1035,"x_min":0,"x_max":0,"o":""},"ū":{"ha":935,"x_min":0,"x_max":0,"o":""},"Ŭ":{"ha":1035,"x_min":0,"x_max":0,"o":""},"ŭ":{"ha":935,"x_min":0,"x_max":0,"o":""},"Ů":{"ha":1035,"x_min":0,"x_max":0,"o":""},"ů":{"ha":935,"x_min":0,"x_max":0,"o":""},"Ű":{"ha":1035,"x_min":0,"x_max":0,"o":""},"ű":{"ha":935,"x_min":0,"x_max":0,"o":""},"Ų":{"ha":1035,"x_min":0,"x_max":0,"o":""},"ų":{"ha":935,"x_min":0,"x_max":0,"o":""},"Ŵ":{"ha":1491,"x_min":0,"x_max":0,"o":""},"ŵ":{"ha":1089,"x_min":0,"x_max":0,"o":""},"Ŷ":{"ha":965,"x_min":0,"x_max":0,"o":""},"ŷ":{"ha":946,"x_min":0,"x_max":0,"o":""},"Ÿ":{"ha":948,"x_min":0,"x_max":0,"o":""},"Ź":{"ha":876,"x_min":0,"x_max":0,"o":""},"ź":{"ha":767,"x_min":0,"x_max":0,"o":""},"Ż":{"ha":857,"x_min":0,"x_max":0,"o":""},"ż":{"ha":767,"x_min":0,"x_max":0,"o":""},"Ž":{"ha":857,"x_min":0,"x_max":0,"o":""},"ž":{"ha":767,"x_min":0,"x_max":0,"o":""},"ſ":{"ha":557,"x_min":0,"x_max":0,"o":""},"ˆ":{"ha":484,"x_min":37,"x_max":471,"o":"m 224 1282 q 340 1215 271 1282 q 393 1158 365 1191 q 415 1131 404 1145 q 425 1120 419 1126 l 429 1114 l 433 1109 q 448 1033 471 1061 q 370 1033 425 1004 q 327 1067 351 1042 l 306 1087 q 286 1107 294 1100 q 193 1130 235 1153 q 164 1103 180 1122 l 151 1086 l 139 1068 q 74 1024 106 1024 q 43 1065 37 1024 q 85 1154 49 1099 q 158 1242 118 1204 q 224 1282 201 1282 z "},"ˇ":{"ha":484,"x_min":14,"x_max":449,"o":"m 261 1005 q 145 1073 214 1005 q 92 1130 120 1097 q 71 1156 82 1142 q 61 1168 66 1162 l 56 1174 l 52 1179 q 37 1255 14 1226 q 116 1255 60 1283 q 159 1221 134 1245 l 179 1200 q 200 1180 192 1187 q 292 1158 250 1135 q 321 1184 306 1165 l 334 1202 l 347 1219 q 412 1263 378 1263 q 442 1223 449 1263 q 401 1135 436 1188 q 327 1046 367 1084 q 261 1005 284 1005 z "},"ˉ":{"ha":550,"x_min":19,"x_max":531,"o":"m 517 1112 q 527 1069 531 1090 q 500 1034 523 1047 q 422 1021 475 1021 l 400 1021 l 379 1022 q 341 1023 352 1023 l 183 1024 l 96 1024 q 19 1086 19 1024 q 60 1144 19 1136 q 98 1145 74 1147 l 119 1145 l 139 1144 l 400 1144 l 415 1144 l 431 1144 q 464 1142 450 1144 q 517 1112 500 1137 z "},"˘":{"ha":500,"x_min":-7,"x_max":469,"o":"m 406 1249 q 332 1210 361 1247 q 310 1177 323 1200 l 298 1160 l 287 1142 q 225 1094 258 1101 q 129 1144 162 1080 q 121 1163 125 1152 l 118 1173 l 115 1183 q 95 1219 106 1208 q 63 1234 83 1233 q 29 1223 43 1235 q 18 1133 -7 1193 q 77 1054 39 1085 q 258 1008 152 994 q 425 1103 354 1021 q 465 1192 460 1142 q 406 1249 469 1251 z "},"˙":{"ha":231,"x_min":1,"x_max":207,"o":"m 25 1072 q 13 1102 25 1072 q 27 1155 1 1133 q 81 1198 54 1198 q 101 1204 81 1203 l 142 1204 q 202 1164 174 1204 q 207 1144 207 1149 l 207 1106 q 176 1043 207 1088 q 106 1012 137 1013 l 101 1014 l 97 1012 q 25 1072 50 1012 z "},"˚":{"ha":304,"x_min":14,"x_max":286,"o":"m 135 1253 q 119 1217 135 1241 l 112 1206 l 104 1196 q 93 1176 97 1184 q 161 1120 71 1128 q 210 1144 197 1124 q 212 1187 221 1162 q 183 1230 204 1211 q 135 1253 161 1250 m 146 1331 q 251 1276 213 1322 q 286 1180 286 1234 q 249 1088 285 1125 q 140 1048 209 1048 q 45 1090 79 1048 q 16 1186 14 1130 q 50 1283 18 1242 q 146 1331 87 1328 z "},"˛":{"ha":304,"x_min":35,"x_max":250,"o":"m 217 95 q 250 60 243 95 q 206 5 250 47 q 130 -98 173 -54 q 106 -149 130 -106 q 103 -176 103 -163 l 103 -182 q 136 -214 103 -214 q 174 -190 156 -214 q 195 -184 191 -184 q 228 -220 221 -184 q 160 -285 228 -262 l 122 -285 q 54 -250 92 -285 q 35 -201 35 -217 l 35 -168 q 71 -65 35 -127 q 144 41 144 24 q 198 92 191 92 q 217 95 209 95 z "},"˜":{"ha":525,"x_min":36,"x_max":484,"o":"m 163 1238 q 229 1240 196 1247 q 262 1228 245 1238 l 278 1219 l 293 1209 q 357 1179 332 1183 q 396 1183 375 1175 q 414 1192 404 1186 l 424 1196 l 433 1200 q 473 1197 459 1212 q 483 1158 484 1184 q 410 1072 480 1098 q 285 1093 339 1046 l 276 1101 l 267 1109 q 249 1126 256 1120 q 205 1144 227 1143 q 161 1124 182 1145 q 145 1105 155 1118 l 138 1095 l 130 1085 q 86 1056 111 1061 q 49 1082 57 1049 q 74 1181 36 1134 q 163 1238 109 1225 z "},"˝":{"ha":562,"x_min":41,"x_max":515,"o":"m 479 1349 q 515 1307 515 1341 l 515 1289 q 419 1146 515 1255 q 303 1020 323 1036 q 282 1014 292 1014 q 246 1053 254 1014 q 328 1177 246 1068 q 424 1322 408 1303 q 479 1349 450 1349 m 219 1337 q 273 1282 273 1328 l 273 1270 q 128 1062 273 1249 q 80 1023 105 1023 q 41 1065 47 1023 q 74 1126 41 1070 l 137 1240 q 213 1337 174 1337 l 219 1337 z "},"Ѐ":{"ha":896,"x_min":0,"x_max":0,"o":""},"Ё":{"ha":1028,"x_min":0,"x_max":0,"o":""},"Ђ":{"ha":1263,"x_min":0,"x_max":0,"o":""},"Ѓ":{"ha":742,"x_min":0,"x_max":0,"o":""},"Є":{"ha":1019,"x_min":0,"x_max":0,"o":""},"Ѕ":{"ha":910,"x_min":0,"x_max":0,"o":""},"І":{"ha":636,"x_min":0,"x_max":0,"o":""},"Ї":{"ha":636,"x_min":0,"x_max":0,"o":""},"Ј":{"ha":850,"x_min":0,"x_max":0,"o":""},"Љ":{"ha":1832,"x_min":0,"x_max":0,"o":""},"Њ":{"ha":1460,"x_min":0,"x_max":0,"o":""},"Ћ":{"ha":1201,"x_min":0,"x_max":0,"o":""},"Ќ":{"ha":879,"x_min":0,"x_max":0,"o":""},"Ѝ":{"ha":1171,"x_min":0,"x_max":0,"o":""},"Ў":{"ha":1149,"x_min":0,"x_max":0,"o":""},"Џ":{"ha":938,"x_min":0,"x_max":0,"o":""},"А":{"ha":1136,"x_min":16,"x_max":1061,"o":"m 758 540 l 758 539 q 755 534 755 536 q 758 539 755 534 l 756 536 l 755 534 q 612 484 730 491 q 517 484 570 481 q 437 491 477 486 q 330 581 338 501 q 338 656 327 612 q 363 736 345 688 l 370 757 q 409 842 387 800 q 469 930 438 897 q 631 939 553 1021 q 752 748 708 857 q 759 540 806 617 l 758 540 m 758 540 q 761 544 760 543 q 758 540 762 545 m 1038 109 l 1029 150 q 998 357 1003 275 l 994 433 q 987 509 990 476 q 954 657 976 593 q 897 795 926 731 q 814 945 857 880 q 571 1128 701 1114 q 348 1010 443 1143 q 279 887 311 960 q 231 764 257 838 q 168 547 202 680 l 140 437 q 111 327 123 372 q 64 184 88 247 q 49 150 59 171 l 40 134 l 33 117 q 22 45 16 78 q 114 -32 37 -23 q 198 -9 172 -38 q 264 98 229 25 l 279 127 l 293 155 q 326 209 310 186 q 570 354 424 341 l 595 356 l 621 358 q 673 360 650 360 q 774 347 734 361 q 836 266 825 330 q 838 203 839 241 l 836 169 l 833 134 q 842 7 827 47 q 939 -62 865 -53 q 1033 -33 1003 -71 q 1048 66 1061 4 l 1038 109 z "},"Б":{"ha":879,"x_min":33,"x_max":863,"o":"m 652 235 q 538 139 623 172 q 389 114 468 112 q 260 178 295 116 q 224 332 237 218 q 222 366 223 349 q 222 407 221 388 q 240 477 224 456 q 380 512 276 526 q 465 493 419 507 q 531 469 498 483 q 648 380 614 437 q 652 235 688 315 m 807 462 q 667 591 759 546 q 486 646 604 622 q 460 651 475 648 l 446 654 l 431 656 q 372 668 395 663 q 265 714 300 685 q 224 823 216 754 q 320 929 234 922 q 470 932 380 934 l 545 929 q 621 927 591 927 q 682 954 659 926 q 703 1013 703 978 q 682 1074 703 1049 q 621 1102 659 1101 q 557 1105 597 1102 l 539 1105 l 521 1107 q 483 1109 498 1108 q 321 1111 385 1115 q 71 980 125 1097 q 34 567 35 903 q 52 110 33 300 q 66 43 56 64 q 111 2 79 14 q 535 -35 328 -83 q 721 56 646 -9 q 832 243 804 128 q 807 462 863 364 z "},"В":{"ha":974,"x_min":33,"x_max":924,"o":"m 672 250 q 634 186 663 214 q 532 132 599 151 q 416 118 473 117 q 252 253 283 121 q 245 282 248 270 q 239 315 241 300 q 236 383 234 353 q 304 480 242 461 q 418 488 350 494 q 530 464 479 482 q 640 378 597 439 q 672 250 687 313 m 239 853 q 292 929 245 904 q 395 950 332 951 q 507 928 454 949 q 587 876 563 907 q 595 754 628 820 q 494 684 562 688 q 325 722 408 678 q 239 853 229 774 m 864 479 q 724 608 816 562 q 806 730 777 659 q 763 1000 869 886 q 500 1120 668 1103 l 471 1123 l 440 1126 q 378 1131 404 1130 q 258 1128 308 1136 q 74 996 128 1109 q 34 589 35 917 q 53 114 33 311 q 68 45 58 67 q 116 2 82 15 q 572 -37 350 -86 q 772 58 692 -9 q 892 252 861 133 q 864 479 924 378 z "},"Г":{"ha":742,"x_min":17,"x_max":750,"o":"m 307 1069 q 443 1091 375 1084 q 587 1094 525 1099 q 749 981 749 1080 q 614 882 750 888 q 557 882 589 881 l 529 884 l 502 886 q 414 887 435 890 q 212 657 214 861 q 234 472 210 586 l 243 425 l 254 378 q 272 290 267 322 q 276 271 273 283 l 278 260 l 280 248 q 289 195 286 218 q 296 81 299 127 q 165 -33 286 -53 q 35 207 64 -16 q 22 382 24 281 q 21 457 21 413 l 20 473 l 20 487 q 20 512 20 503 l 19 550 l 18 589 q 18 668 17 635 q 34 822 20 758 q 218 1045 73 989 q 307 1069 249 1057 z "},"Д":{"ha":1141,"x_min":30,"x_max":1120,"o":"m 745 235 q 701 205 728 212 q 627 203 690 203 l 614 203 l 600 203 l 572 203 q 544 205 556 203 q 490 220 512 208 q 469 313 444 244 q 480 340 473 325 l 487 355 l 493 368 q 513 414 509 401 q 539 614 534 501 l 543 988 q 549 1018 544 1000 q 632 1036 551 1040 q 791 936 795 1041 q 787 787 789 877 l 785 638 q 772 340 781 458 q 766 290 770 309 q 750 243 761 261 l 745 235 m 1114 113 q 1091 153 1109 139 q 1050 173 1080 161 q 1008 205 1023 184 q 989 258 996 223 q 984 340 989 288 l 980 382 l 977 422 q 977 505 975 453 l 978 546 l 978 587 q 987 802 978 676 l 996 910 l 1006 1017 q 1001 1115 1010 1072 q 800 1213 980 1213 q 593 1201 741 1213 q 560 1196 578 1199 l 545 1194 l 530 1192 q 479 1185 494 1187 q 391 1152 414 1178 q 364 1057 366 1124 q 363 911 361 1000 l 364 839 l 365 766 l 365 711 l 364 656 q 248 261 358 429 q 151 186 186 198 q 106 176 115 176 q 76 172 86 178 q 35 62 30 144 q 44 -5 36 31 q 60 -60 51 -31 q 136 -74 86 -136 l 140 -68 l 144 -61 q 155 -45 151 -52 l 165 -31 l 175 -16 q 207 28 196 20 q 402 71 248 63 q 770 61 553 80 q 943 28 921 43 q 964 -12 956 19 l 966 -18 l 968 -25 q 972 -42 970 -35 l 977 -58 l 979 -74 q 1046 -144 1000 -153 q 1084 -103 1068 -140 q 1095 -74 1088 -92 q 1097 -60 1095 -69 l 1100 -54 l 1101 -47 q 1112 4 1107 -20 q 1118 58 1118 35 q 1114 113 1120 87 z "},"Е":{"ha":907,"x_min":0,"x_max":0,"o":""},"Ж":{"ha":1404,"x_min":0,"x_max":0,"o":""},"З":{"ha":711,"x_min":0,"x_max":0,"o":""},"И":{"ha":1072,"x_min":0,"x_max":0,"o":""},"Й":{"ha":1171,"x_min":0,"x_max":0,"o":""},"К":{"ha":915,"x_min":0,"x_max":0,"o":""},"Л":{"ha":1253,"x_min":0,"x_max":0,"o":""},"М":{"ha":1702,"x_min":0,"x_max":0,"o":""},"Н":{"ha":949,"x_min":0,"x_max":0,"o":""},"О":{"ha":960,"x_min":0,"x_max":0,"o":""},"П":{"ha":897,"x_min":0,"x_max":0,"o":""},"Р":{"ha":857,"x_min":0,"x_max":0,"o":""},"С":{"ha":1019,"x_min":0,"x_max":0,"o":""},"Т":{"ha":1040,"x_min":0,"x_max":0,"o":""},"У":{"ha":1149,"x_min":0,"x_max":0,"o":""},"Ф":{"ha":1180,"x_min":0,"x_max":0,"o":""},"Х":{"ha":1103,"x_min":0,"x_max":0,"o":""},"Ц":{"ha":991,"x_min":0,"x_max":0,"o":""},"Ч":{"ha":897,"x_min":0,"x_max":0,"o":""},"Ш":{"ha":1082,"x_min":0,"x_max":0,"o":""},"Щ":{"ha":1124,"x_min":0,"x_max":0,"o":""},"Ъ":{"ha":1201,"x_min":0,"x_max":0,"o":""},"Ы":{"ha":1249,"x_min":0,"x_max":0,"o":""},"Ь":{"ha":876,"x_min":0,"x_max":0,"o":""},"Э":{"ha":1019,"x_min":0,"x_max":0,"o":""},"Ю":{"ha":1310,"x_min":0,"x_max":0,"o":""},"Я":{"ha":827,"x_min":0,"x_max":0,"o":""},"а":{"ha":861,"x_min":18,"x_max":850,"o":"m 541 385 q 517 380 520 380 q 525 382 515 380 q 541 385 535 384 q 541 385 548 387 q 400 409 433 363 q 394 557 370 450 q 399 581 395 562 q 401 596 400 590 l 405 614 q 426 690 414 659 q 513 770 459 783 q 558 715 542 762 q 568 676 563 700 l 570 667 l 572 658 q 576 642 574 648 q 587 605 580 629 l 593 586 l 600 567 q 614 491 612 521 q 541 385 621 408 m 768 456 q 747 578 758 522 q 710 715 730 654 q 571 930 655 878 q 332 852 441 1011 q 256 710 293 796 q 229 642 243 680 q 218 612 224 629 l 214 598 l 209 586 q 165 469 192 539 l 119 350 q 37 112 66 208 q 37 12 18 47 q 121 -3 58 -28 q 214 93 180 22 l 227 123 l 240 153 q 277 209 257 187 q 399 243 302 237 q 475 243 432 244 q 508 243 490 243 l 515 243 l 522 243 q 533 242 529 242 q 648 218 616 240 q 682 110 690 188 q 679 84 682 101 l 677 69 l 675 55 q 672 -5 670 18 q 743 -75 677 -73 q 825 157 850 -71 q 794 333 817 227 q 785 372 791 349 l 781 389 l 778 406 q 768 456 770 441 z "},"б":{"ha":785,"x_min":28,"x_max":801,"o":"m 593 295 q 524 198 578 234 q 323 184 465 159 q 265 234 293 197 q 232 303 240 269 q 260 431 212 384 q 455 471 301 473 q 566 425 525 470 q 593 295 613 376 m 753 471 q 581 646 705 600 q 460 666 528 665 q 346 663 450 666 l 330 660 l 313 658 q 252 669 272 654 q 233 713 233 685 q 243 762 232 734 q 358 819 262 814 q 482 817 435 821 l 500 815 l 518 814 q 548 811 538 812 q 616 837 590 809 q 641 899 639 862 q 621 964 642 937 q 555 996 597 994 l 479 1000 q 357 1002 435 1002 q 205 987 271 1001 q 66 916 104 964 q 33 762 28 866 l 37 677 q 48 267 42 327 q 87 121 58 180 q 223 4 125 43 q 488 -13 315 -33 q 604 33 546 -1 q 762 224 722 99 q 753 471 801 346 z "},"в":{"ha":823,"x_min":26,"x_max":817,"o":"m 632 345 q 589 275 623 312 q 524 224 557 242 q 414 205 477 199 q 309 241 355 211 q 244 340 250 279 q 246 398 242 362 l 248 414 l 250 430 q 253 464 252 450 q 296 498 256 494 q 334 499 310 500 l 352 498 q 369 498 363 498 l 399 498 q 431 498 417 498 q 497 493 469 497 q 610 441 574 481 q 632 345 646 398 m 277 827 q 347 850 294 848 q 390 848 368 851 q 423 843 409 846 q 492 806 466 833 q 502 736 524 772 q 357 646 467 678 q 269 716 275 622 q 269 728 269 720 l 268 734 l 267 742 q 266 774 266 760 q 277 827 266 813 m 808 355 q 741 519 800 454 q 591 622 694 572 q 644 783 643 703 q 566 924 646 879 q 333 982 459 986 q 185 946 230 979 q 106 815 140 913 q 33 431 52 656 q 30 390 31 406 q 28 346 28 366 q 30 254 26 294 q 90 90 39 147 q 361 -5 180 -10 q 652 62 507 -1 q 779 182 736 98 q 808 355 817 260 z "},"г":{"ha":722,"x_min":50,"x_max":743,"o":"m 256 74 q 243 225 256 106 q 235 318 237 281 q 230 414 231 371 q 331 716 226 653 q 416 734 363 735 q 463 730 435 734 l 488 728 l 512 725 q 604 726 571 718 q 676 774 651 736 q 642 920 743 874 q 546 945 604 937 q 454 951 501 951 q 225 886 319 949 q 87 694 127 819 q 57 385 50 572 q 62 307 58 351 l 67 229 q 75 74 75 130 q 104 8 76 33 q 167 -14 130 -14 q 229 8 204 -14 q 256 74 257 33 z "},"д":{"ha":935,"x_min":-8,"x_max":925,"o":"m 623 439 q 595 309 618 349 q 488 252 564 253 q 412 265 434 250 q 397 304 393 277 q 416 363 399 324 l 423 380 l 431 397 q 444 433 439 417 q 458 484 451 454 l 463 509 l 467 536 q 492 638 479 604 q 554 684 511 687 q 617 635 597 682 q 629 538 631 603 q 627 486 629 517 l 626 473 l 625 461 q 623 439 624 447 m 808 214 l 800 216 q 804 377 801 286 l 810 538 q 815 859 817 739 q 798 909 814 886 q 755 938 781 934 q 597 950 685 948 q 517 951 562 951 l 438 950 q 380 926 403 949 q 356 868 360 903 q 144 224 313 496 l 142 220 l 140 216 l 118 216 l 96 215 q 39 191 60 215 q 14 134 18 169 q 5 43 10 102 l 2 -3 l -3 -48 q 33 -117 -8 -96 q 113 -115 72 -137 q 151 -79 138 -103 q 161 -56 157 -69 l 165 -44 l 169 -33 q 190 12 179 -3 q 236 45 206 35 q 337 64 275 58 q 390 68 358 66 l 416 70 l 440 71 l 448 72 l 458 73 q 477 74 469 73 q 525 76 503 75 q 631 70 586 77 q 761 -36 761 50 q 786 -96 761 -73 q 842 -115 809 -115 q 899 -95 876 -115 q 924 -36 924 -73 l 924 -16 l 924 5 q 924 43 925 28 q 915 113 923 85 q 816 212 895 183 l 808 214 z "},"е":{"ha":750,"x_min":0,"x_max":0,"o":""},"ж":{"ha":1141,"x_min":0,"x_max":0,"o":""},"з":{"ha":704,"x_min":0,"x_max":0,"o":""},"и":{"ha":897,"x_min":0,"x_max":0,"o":""},"й":{"ha":897,"x_min":0,"x_max":0,"o":""},"к":{"ha":862,"x_min":0,"x_max":0,"o":""},"л":{"ha":994,"x_min":0,"x_max":0,"o":""},"м":{"ha":991,"x_min":0,"x_max":0,"o":""},"н":{"ha":725,"x_min":0,"x_max":0,"o":""},"о":{"ha":807,"x_min":0,"x_max":0,"o":""},"п":{"ha":852,"x_min":0,"x_max":0,"o":""},"р":{"ha":788,"x_min":0,"x_max":0,"o":""},"с":{"ha":873,"x_min":0,"x_max":0,"o":""},"т":{"ha":676,"x_min":0,"x_max":0,"o":""},"у":{"ha":981,"x_min":0,"x_max":0,"o":""},"ф":{"ha":931,"x_min":0,"x_max":0,"o":""},"х":{"ha":945,"x_min":0,"x_max":0,"o":""},"ц":{"ha":854,"x_min":0,"x_max":0,"o":""},"ч":{"ha":753,"x_min":0,"x_max":0,"o":""},"ш":{"ha":956,"x_min":0,"x_max":0,"o":""},"щ":{"ha":1019,"x_min":0,"x_max":0,"o":""},"ъ":{"ha":1029,"x_min":0,"x_max":0,"o":""},"ы":{"ha":1029,"x_min":0,"x_max":0,"o":""},"ь":{"ha":721,"x_min":0,"x_max":0,"o":""},"э":{"ha":854,"x_min":0,"x_max":0,"o":""},"ю":{"ha":1240,"x_min":0,"x_max":0,"o":""},"я":{"ha":726,"x_min":0,"x_max":0,"o":""},"ѐ":{"ha":750,"x_min":0,"x_max":0,"o":""},"ё":{"ha":750,"x_min":0,"x_max":0,"o":""},"ђ":{"ha":1143,"x_min":0,"x_max":0,"o":""},"ѓ":{"ha":722,"x_min":0,"x_max":0,"o":""},"є":{"ha":849,"x_min":0,"x_max":0,"o":""},"ѕ":{"ha":728,"x_min":0,"x_max":0,"o":""},"і":{"ha":300,"x_min":0,"x_max":0,"o":""},"ї":{"ha":312,"x_min":0,"x_max":0,"o":""},"ј":{"ha":684,"x_min":0,"x_max":0,"o":""},"љ":{"ha":1366,"x_min":0,"x_max":0,"o":""},"њ":{"ha":1274,"x_min":0,"x_max":0,"o":""},"ћ":{"ha":1082,"x_min":0,"x_max":0,"o":""},"ќ":{"ha":848,"x_min":0,"x_max":0,"o":""},"ѝ":{"ha":812,"x_min":0,"x_max":0,"o":""},"ў":{"ha":981,"x_min":0,"x_max":0,"o":""},"џ":{"ha":753,"x_min":0,"x_max":0,"o":""},"Ґ":{"ha":737,"x_min":0,"x_max":0,"o":""},"ґ":{"ha":669,"x_min":0,"x_max":0,"o":""},"Ẁ":{"ha":1491,"x_min":0,"x_max":0,"o":""},"ẁ":{"ha":1089,"x_min":0,"x_max":0,"o":""},"Ẃ":{"ha":1491,"x_min":0,"x_max":0,"o":""},"ẃ":{"ha":1089,"x_min":0,"x_max":0,"o":""},"Ỳ":{"ha":959,"x_min":0,"x_max":0,"o":""},"ỳ":{"ha":859,"x_min":0,"x_max":0,"o":""},"–":{"ha":777,"x_min":0,"x_max":0,"o":""},"—":{"ha":973,"x_min":0,"x_max":0,"o":""},"‘":{"ha":276,"x_min":0,"x_max":0,"o":""},"’":{"ha":276,"x_min":0,"x_max":0,"o":""},"‚":{"ha":286,"x_min":0,"x_max":0,"o":""},"“":{"ha":503,"x_min":0,"x_max":0,"o":""},"”":{"ha":458,"x_min":0,"x_max":0,"o":""},"„":{"ha":458,"x_min":0,"x_max":0,"o":""},"†":{"ha":525,"x_min":0,"x_max":0,"o":""},"‡":{"ha":539,"x_min":0,"x_max":0,"o":""},"•":{"ha":347,"x_min":0,"x_max":0,"o":""},"…":{"ha":1177,"x_min":0,"x_max":0,"o":""},"‰":{"ha":1387,"x_min":0,"x_max":0,"o":""},"‹":{"ha":308,"x_min":0,"x_max":0,"o":""},"›":{"ha":308,"x_min":0,"x_max":0,"o":""},"⁄":{"ha":693,"x_min":0,"x_max":0,"o":""},"∕":{"ha":693,"x_min":0,"x_max":0,"o":""},"₣":{"ha":886,"x_min":0,"x_max":0,"o":""},"₧":{"ha":1733,"x_min":0,"x_max":0,"o":""},"€":{"ha":710,"x_min":0,"x_max":0,"o":""},"™":{"ha":802,"x_min":0,"x_max":0,"o":""},"−":{"ha":669,"x_min":0,"x_max":0,"o":""},"≤":{"ha":791,"x_min":0,"x_max":0,"o":""},"≥":{"ha":767,"x_min":0,"x_max":0,"o":""}}}
